<svg width="158" height="172" viewBox="0 0 158 172" fill="none" xmlns="http://www.w3.org/2000/svg">
<g clip-path="url(#clip0_2001_42902)">
<rect x="121" y="122" width="1.20013" height="3.58" transform="rotate(-40 121 122)" fill="#E82A2A" fill-opacity="0.35"/>
<rect x="89" y="26" width="5.20013" height="2.58" transform="rotate(-163 89 26)" fill="#64BD87" fill-opacity="0.6"/>
<rect x="134" y="3" width="6.20013" height="2.58" transform="rotate(74 134 3)" fill="#E82A2A" fill-opacity="0.6"/>
<rect x="56" y="2" width="4.20013" height="2.58" transform="rotate(-126 56 2)" fill="#E82A2A" fill-opacity="0.75"/>
<rect x="46" y="134" width="7.20013" height="3.58" transform="rotate(-27 46 134)" fill="#E82A2A" fill-opacity="0.65"/>
<rect x="111" y="93" width="2.20013" height="2.58" transform="rotate(-7 111 93)" fill="#F2CB6D" fill-opacity="0.6"/>
<rect x="4" y="45" width="3.20013" height="1.58" transform="rotate(157 4 45)" fill="#64BD87"/>
<rect x="16" y="166" width="5.20013" height="3.58" transform="rotate(-138 16 166)" fill="#F2CB6D" fill-opacity="0.6"/>
<rect x="92" y="52" width="2.20013" height="2.58" transform="rotate(-89 92 52)" fill="#64BD87" fill-opacity="0.85"/>
<rect x="10" y="169" width="3.20013" height="2.58" transform="rotate(97 10 169)" fill="#18A0FC" fill-opacity="0.45"/>
<rect x="4" y="150" width="6.20013" height="2.58" transform="rotate(-82 4 150)" fill="#64BD87" fill-opacity="0.6"/>
<rect x="92" y="144" width="5.20013" height="1.58" transform="rotate(-26 92 144)" fill="#64BD87" fill-opacity="0.75"/>
<rect x="102" y="105" width="4.20013" height="2.58" transform="rotate(-13 102 105)" fill="#18A0FC" fill-opacity="0.85"/>
<rect x="4" y="63" width="5.20013" height="2.58" transform="rotate(-10 4 63)" fill="#E82A2A" fill-opacity="0.75"/>
<rect x="7" y="86" width="1.20013" height="2.58" transform="rotate(-24 7 86)" fill="#18A0FC" fill-opacity="0.9"/>
<rect x="94" y="53" width="1.20013" height="2.58" transform="rotate(46 94 53)" fill="#64BD87" fill-opacity="0.6"/>
<rect x="35" y="12" width="4.20013" height="2.58" transform="rotate(10 35 12)" fill="#18A0FC" fill-opacity="0.75"/>
<rect x="25" y="107" width="7.20013" height="1.58" transform="rotate(-48 25 107)" fill="#64BD87" fill-opacity="0.75"/>
<rect x="31" y="134" width="7.20013" height="2.58" transform="rotate(25 31 134)" fill="#18A0FC"/>
<rect x="121" y="124" width="3.20013" height="3.58" transform="rotate(43 121 124)" fill="#F2CB6D"/>
<rect x="105" y="104" width="2.20013" height="3.58" transform="rotate(13 105 104)" fill="#E82A2A" fill-opacity="0.35"/>
<rect x="125" y="77" width="3.20013" height="3.58" transform="rotate(-131 125 77)" fill="#E82A2A" fill-opacity="0.45"/>
<rect x="5" y="102" width="1.20013" height="1.58" transform="rotate(-30 5 102)" fill="#64BD87" fill-opacity="0.65"/>
<rect x="132" y="159" width="6.20013" height="1.58" transform="rotate(97 132 159)" fill="#18A0FC" fill-opacity="0.35"/>
<rect x="107" y="95" width="2.20013" height="2.58" transform="rotate(141 107 95)" fill="#18A0FC" fill-opacity="0.85"/>
<circle cx="15.5" cy="51.5" r="0.5" fill="#64BD87" fill-opacity="0.65"/>
<circle cx="4.5" cy="28.5" r="0.5" fill="#64BD87" fill-opacity="0.45"/>
<circle cx="60.4286" cy="100.429" r="1.42862" fill="#64BD87" fill-opacity="0.65"/>
<circle cx="85.9286" cy="41.9286" r="0.928617" fill="#64BD87" fill-opacity="0.45"/>
<circle cx="27.4286" cy="23.4286" r="1.42862" fill="#18A0FC"/>
<circle cx="148.429" cy="99.4286" r="1.42862" fill="#E82A2A" fill-opacity="0.45"/>
<circle cx="46.4286" cy="30.4286" r="1.42862" fill="#F2CB6D"/>
<circle cx="38.4286" cy="58.4286" r="1.42862" fill="#F2CB6D" fill-opacity="0.6"/>
<circle cx="135.929" cy="113.929" r="0.928617" fill="#64BD87" fill-opacity="0.6"/>
<circle cx="95.4286" cy="166.429" r="1.42862" fill="#F2CB6D"/>
<circle cx="8.5" cy="111.5" r="0.5" fill="#18A0FC" fill-opacity="0.75"/>
<circle cx="114.5" cy="86.5" r="0.5" fill="#E82A2A" fill-opacity="0.75"/>
<circle cx="113.5" cy="71.5" r="0.5" fill="#F2CB6D" fill-opacity="0.75"/>
<circle cx="38.4286" cy="23.4286" r="1.42862" fill="#F2CB6D" fill-opacity="0.75"/>
<circle cx="53.4286" cy="28.4286" r="1.42862" fill="#64BD87" fill-opacity="0.65"/>
<circle cx="112.5" cy="44.5" r="0.5" fill="#F2CB6D" fill-opacity="0.45"/>
<circle cx="131.429" cy="89.4286" r="1.42862" fill="#18A0FC" fill-opacity="0.75"/>
<circle cx="89.5" cy="58.5" r="0.5" fill="#18A0FC" fill-opacity="0.35"/>
<circle cx="97.9286" cy="121.929" r="0.928617" fill="#F2CB6D" fill-opacity="0.65"/>
<circle cx="6.92862" cy="141.929" r="0.928617" fill="#F2CB6D" fill-opacity="0.35"/>
<circle cx="104.929" cy="109.929" r="0.928617" fill="#64BD87" fill-opacity="0.65"/>
<circle cx="7.92862" cy="161.929" r="0.928617" fill="#64BD87" fill-opacity="0.65"/>
<circle cx="142.929" cy="93.9286" r="0.928617" fill="#F2CB6D" fill-opacity="0.9"/>
<circle cx="57.9286" cy="168.929" r="0.928617" fill="#18A0FC"/>
<circle cx="55.4286" cy="156.429" r="1.42862" fill="#64BD87" fill-opacity="0.35"/>
<path d="M135.925 129.146L136.705 128.217L137.633 128.997L136.854 129.925L135.925 129.146Z" fill="#F2CB6D" fill-opacity="0.9"/>
<path d="M15.5773 -0.193807L14.9421 -1.93904L16.1359 -3.36176L17.9649 -3.03925L18.6001 -1.29403L17.4063 0.128698L15.5773 -0.193807Z" fill="#64BD87" fill-opacity="0.75"/>
<path d="M91.6928 63.8003L90.8476 64.3492L90.0645 63.715L90.4256 62.7742L91.432 62.8269L91.6928 63.8003Z" fill="#64BD87" fill-opacity="0.45"/>
<path d="M10.8111 165.656L11.9662 164.123L13.4992 165.278L12.344 166.811L10.8111 165.656Z" fill="#F2CB6D" fill-opacity="0.65"/>
<path d="M131.157 60.6548L128.659 61.4664L127.847 58.9685L130.345 58.1568L131.157 60.6548Z" fill="#18A0FC" fill-opacity="0.45"/>
<path d="M53.6259 154.305L51.3449 154.873L51.9929 152.614L53.6259 154.305Z" fill="#E82A2A" fill-opacity="0.35"/>
<path d="M103.96 132.872L101.751 132.068L103.552 130.557L103.96 132.872Z" fill="#18A0FC" fill-opacity="0.6"/>
<path d="M109.755 76.3033L112.207 75.3621L113.149 77.8141L110.697 78.7554L109.755 76.3033Z" fill="#18A0FC" fill-opacity="0.85"/>
<path d="M70.1654 46.3471L68.9837 47.8596L67.4712 46.6779L68.6529 45.1654L70.1654 46.3471Z" fill="#64BD87" fill-opacity="0.6"/>
<path d="M80.6372 135.802L82.9865 135.72L81.8829 137.795L80.6372 135.802Z" fill="#E82A2A" fill-opacity="0.35"/>
<path d="M118.071 56.3554L116.787 57.7818L115.36 56.4974L116.645 55.071L118.071 56.3554Z" fill="#18A0FC" fill-opacity="0.65"/>
<path d="M68.5206 77.2893L68.752 76.0993L69.942 76.3306L69.7107 77.5206L68.5206 77.2893Z" fill="#64BD87" fill-opacity="0.75"/>
<path d="M141.009 110.908L141.34 112.469L139.959 113.267L138.773 112.199L139.422 110.741L141.009 110.908Z" fill="#18A0FC" fill-opacity="0.9"/>
<path d="M156.331 34.1858L155.292 32.6461L156.106 30.9769L157.959 30.8473L158.998 32.387L158.183 34.0563L156.331 34.1858Z" fill="#E82A2A" fill-opacity="0.45"/>
<path d="M5.81665 4.61386L7.96912 7.00443L4.8226 7.67324L5.81665 4.61386Z" fill="#E82A2A" fill-opacity="0.45"/>
<path d="M116.97 131.857L116.35 132.651L115.403 132.306L115.438 131.299L116.407 131.021L116.97 131.857Z" fill="#F2CB6D" fill-opacity="0.65"/>
<path d="M62.6487 81.689L64.311 80.0267L64.9194 82.2974L62.6487 81.689Z" fill="#F2CB6D" fill-opacity="0.35"/>
<path d="M13.9104 122.147L15.1116 121.275L15.2668 122.751L13.9104 122.147Z" fill="#E82A2A" fill-opacity="0.45"/>
<path d="M88.9347 47.4786L89.3908 44.892L91.9774 45.3481L91.5214 47.9347L88.9347 47.4786Z" fill="#18A0FC" fill-opacity="0.75"/>
<path d="M153.143 7.46352L153.22 9.6455L151.168 10.3922L149.824 8.67176L151.045 6.86172L153.143 7.46352Z" fill="#64BD87" fill-opacity="0.85"/>
<path d="M81.0474 48.6436L82.0297 47.3863L83.529 47.932L83.4733 49.5266L81.9396 49.9663L81.0474 48.6436Z" fill="#E82A2A" fill-opacity="0.35"/>
<path d="M96.8356 59.0695L95.955 61.2491L94.5077 59.3967L96.8356 59.0695Z" fill="#18A0FC" fill-opacity="0.65"/>
<path d="M27.7663 158.426L30.1066 159.619L28.9142 161.959L26.5739 160.766L27.7663 158.426Z" fill="#F2CB6D" fill-opacity="0.65"/>
<path d="M84.357 83.0237L85.6904 84.4044L84.3097 85.7377L82.9763 84.357L84.357 83.0237Z" fill="#F2CB6D"/>
<path d="M53.7022 72.5083L54.5562 72.4336L55.0479 73.1358L54.6856 73.9127L53.8316 73.9874L53.3399 73.2852L53.7022 72.5083Z" fill="#64BD87" fill-opacity="0.75"/>
<path d="M70.7095 60.8344L69.2921 61.1177L68.5846 62.3782L68.3012 60.9608L67.0407 60.2533L68.4581 59.9699L69.1656 58.7095L69.449 60.1269L70.7095 60.8344Z" fill="#18A0FC"/>
<path d="M56.4264 75.637L55.8905 75.3749L55.6111 75.9019L55.5703 75.3068L54.9741 75.3283L55.4691 74.9954L55.1523 74.4898L55.6882 74.752L55.9676 74.2249L56.0084 74.8201L56.6046 74.7985L56.1096 75.1315L56.4264 75.637Z" fill="#F2CB6D" fill-opacity="0.6"/>
<path d="M116.943 66.9763L116.47 67.7937L117.271 68.2932L116.327 68.292L116.295 69.236L115.824 68.4175L114.99 68.8619L115.463 68.0445L114.662 67.545L115.606 67.5462L115.638 66.6022L116.109 67.4208L116.943 66.9763Z" fill="#18A0FC" fill-opacity="0.65"/>
<path d="M99.3731 126.585L98.777 126.285L98.1615 126.542L98.4612 125.946L98.2038 125.331L98.7999 125.63L99.4154 125.373L99.1157 125.969L99.3731 126.585Z" fill="#64BD87" fill-opacity="0.6"/>
<path d="M106.259 49.3323L105.356 49.8812L105.186 50.9236L104.637 50.0211L103.594 49.8502L104.497 49.3014L104.668 48.259L105.217 49.1615L106.259 49.3323Z" fill="#E82A2A" fill-opacity="0.6"/>
<path d="M144.935 109.479L145.749 108.475L144.773 107.628L146.049 107.832L146.294 106.563L146.756 107.77L147.977 107.348L147.163 108.352L148.139 109.198L146.863 108.994L146.618 110.264L146.156 109.056L144.935 109.479Z" fill="#E82A2A" fill-opacity="0.35"/>
<path d="M95.3043 165.278L96.3733 164.305L96.3305 162.86L97.3035 163.929L98.7483 163.887L97.6793 164.859L97.722 166.304L96.7491 165.235L95.3043 165.278Z" fill="#18A0FC" fill-opacity="0.85"/>
<path d="M108.2 42.3072L107.808 41.8232L107.226 42.0464L107.566 41.524L107.174 41.04L107.775 41.2012L108.114 40.6789L108.147 41.3008L108.749 41.462L108.167 41.6852L108.2 42.3072Z" fill="#18A0FC" fill-opacity="0.65"/>
<path d="M118.194 28.7068L118.237 28.1117L117.643 28.0501L118.18 27.7893L117.937 27.2446L118.431 27.5788L118.781 27.0957L118.738 27.6908L119.332 27.7524L118.795 28.0133L119.039 28.558L118.545 28.2237L118.194 28.7068Z" fill="#F2CB6D" fill-opacity="0.45"/>
<path d="M48.4261 99.2337L49.5603 98.3377L49.6185 96.8934L50.5145 98.0277L51.9588 98.0858L50.8245 98.9818L50.7663 100.426L49.8704 99.2918L48.4261 99.2337Z" fill="#F2CB6D" fill-opacity="0.65"/>
<path d="M72.7178 113.672L73.6106 113.108L73.7632 112.063L74.3277 112.955L75.373 113.108L74.4802 113.673L74.3276 114.718L73.763 113.825L72.7178 113.672Z" fill="#18A0FC" fill-opacity="0.75"/>
<path d="M140.798 99.902L141.736 100.207L142.315 99.4089L142.315 100.395L143.253 100.7L142.315 101.004L142.315 101.991L141.736 101.193L140.798 101.497L141.377 100.7L140.798 99.902Z" fill="#E82A2A" fill-opacity="0.35"/>
<path d="M63.7099 17.664L64.3433 16.4726L63.406 15.502L64.7349 15.7363L65.3683 14.5449L65.5561 15.8811L66.885 16.1154L65.6722 16.7069L65.86 18.0431L64.9227 17.0725L63.7099 17.664Z" fill="#E82A2A" fill-opacity="0.9"/>
<path d="M96.6529 115.835L96.4647 114.867L95.486 114.746L96.3484 114.268L96.1603 113.3L96.8815 113.973L97.7439 113.495L97.3272 114.389L98.0484 115.061L97.0696 114.941L96.6529 115.835Z" fill="#E82A2A" fill-opacity="0.6"/>
<path d="M43.0598 35.8551L42.4823 36.0885L42.5258 36.7098L42.1254 36.2327L41.548 36.466L41.878 35.9378L41.4777 35.4607L42.082 35.6114L42.412 35.0832L42.4555 35.7045L43.0598 35.8551Z" fill="#18A0FC" fill-opacity="0.6"/>
<path d="M100.363 150.574L99.8574 150.257L99.5244 150.752L99.546 150.156L98.9508 150.115L99.4779 149.835L99.2157 149.3L99.7213 149.616L100.054 149.121L100.033 149.717L100.628 149.758L100.101 150.038L100.363 150.574Z" fill="#F2CB6D" fill-opacity="0.85"/>
<path d="M12.0435 73.408L12.9261 72.4639L12.011 71.5511L13.27 71.8434L13.603 70.5945L13.9793 71.831L15.2274 71.4949L14.3447 72.4391L15.2598 73.3519L14.0008 73.0596L13.6678 74.3084L13.2915 73.0719L12.0435 73.408Z" fill="#F2CB6D" fill-opacity="0.45"/>
<path d="M99.8129 15.658L99.012 14.9693L97.9679 15.1289L98.6566 14.328L98.4969 13.2839L99.2978 13.9726L100.342 13.8129L99.6533 14.6138L99.8129 15.658Z" fill="#64BD87" fill-opacity="0.45"/>
<path d="M86.5303 25.7507L87.4677 25.8669L87.6142 24.9339L87.9822 25.8038L88.8636 25.4642L88.2942 26.2178L89.029 26.8113L88.0916 26.695L87.9451 27.6281L87.5771 26.7582L86.6957 27.0978L87.2651 26.3442L86.5303 25.7507Z" fill="#18A0FC" fill-opacity="0.45"/>
<path d="M51.3283 4.31692L50.4921 4.83947L50.7307 5.79626L49.9753 5.16242L49.139 5.68496L49.5084 4.77068L48.753 4.13683L49.7367 4.20562L50.1061 3.29134L50.3447 4.24813L51.3283 4.31692Z" fill="#18A0FC" fill-opacity="0.75"/>
<path d="M11.0747 128.146L11.6816 128.006L11.7358 127.385L12.0566 127.919L12.6635 127.779L12.2549 128.249L12.5756 128.783L12.0023 128.54L11.5937 129.01L11.648 128.389L11.0747 128.146Z" fill="#E82A2A" fill-opacity="0.75"/>
<path d="M59.8527 56.1296L60.1791 57.4388L61.5252 57.533L60.3809 58.248L60.7073 59.5573L59.6737 58.6899L58.5293 59.405L59.0348 58.1539L58.0012 57.2865L59.3472 57.3807L59.8527 56.1296Z" fill="#18A0FC" fill-opacity="0.9"/>
<path d="M59.6502 54.1419L59.1821 53.195L58.1585 52.9339L59.1054 52.4658L59.3665 51.4423L59.8346 52.3892L60.8581 52.6502L59.9112 53.1183L59.6502 54.1419Z" fill="#E82A2A" fill-opacity="0.75"/>
<path d="M119.813 122.658L119.012 121.969L117.968 122.129L118.657 121.328L118.497 120.284L119.298 120.973L120.342 120.813L119.653 121.614L119.813 122.658Z" fill="#F2CB6D" fill-opacity="0.75"/>
<path d="M56.6776 141.305L56.1697 140.46L55.2089 140.682L55.8558 139.938L55.3479 139.092L56.2556 139.478L56.9026 138.734L56.8166 139.716L57.7243 140.101L56.7635 140.323L56.6776 141.305Z" fill="#64BD87" fill-opacity="0.75"/>
<path d="M78.5 29L96.785 54.8295L128.296 57.75L115.07 86.5L128.296 115.25L96.785 118.171L78.5 144L60.215 118.171L28.7035 115.25L41.93 86.5L28.7035 57.75L60.215 54.8295L78.5 29Z" fill="url(#paint0_linear_2001_42902)"/>
<circle cx="78.7874" cy="86.2125" r="42.8375" fill="url(#paint1_linear_2001_42902)"/>
<circle cx="78.7875" cy="86.2125" r="36.5125" fill="url(#paint2_radial_2001_42902)"/>
<circle cx="78.4999" cy="86.4996" r="35.075" fill="#E1E3E2"/>
<g filter="url(#filter0_d_2001_42902)">
<path d="M78.4876 73.2752V87.2839L73.8116 81.3048L77.4705 73.9031C77.6915 73.4963 78.0983 73.2752 78.4876 73.2752Z" fill="white"/>
<path d="M92.2592 83.2878L78.504 87.2856L83.1786 81.3065L91.3438 82.4917C91.8021 82.5758 92.1236 82.8972 92.2592 83.2878Z" fill="#F2F4F5"/>
<path d="M86.9918 99.4294L78.4889 87.284L86.0438 90.1806L87.4325 98.3119C87.5329 98.7866 87.3294 99.1921 86.9918 99.4294Z" fill="#EFF5F3"/>
<path d="M78.4875 87.284V95.6689L71.1862 99.5135C70.763 99.7332 70.3223 99.6654 69.9833 99.4294L78.4875 87.284Z" fill="#D5DBDD"/>
<path d="M83.1635 81.3048L78.4875 87.2839V73.2752C78.7927 73.2752 79.0978 73.3932 79.3175 73.6305C79.3514 73.6644 79.3853 73.7146 79.4192 73.7661C79.4531 73.8177 79.487 73.8678 79.5033 73.918L83.1635 81.3048Z" fill="#DFE3E6"/>
<path d="M92.225 84.0495C92.1911 84.1174 92.1572 84.1852 92.1233 84.253C92.0718 84.3208 92.0216 84.3709 91.9714 84.4388L86.0601 90.1982L78.5051 87.3015L92.2603 83.3037C92.2603 83.32 92.2765 83.3376 92.2765 83.3552C92.2765 83.3728 92.2942 83.3891 92.2942 83.423C92.2942 83.4406 92.2942 83.4406 92.2942 83.4406C92.2942 83.4569 92.2942 83.4746 92.2942 83.4908C92.2942 83.5247 92.2942 83.5424 92.2942 83.5749C92.3104 83.7268 92.2928 83.8963 92.225 84.0495Z" fill="#C4C7C6"/>
<path d="M86.9918 99.4294C86.9077 99.4972 86.806 99.5474 86.6867 99.5813C86.6704 99.5813 86.6704 99.5813 86.6528 99.5975C86.3815 99.6816 86.0764 99.6653 85.7889 99.5135L78.4875 95.6689V87.284L86.9918 99.4294Z" fill="#C0C7CE"/>
<path d="M78.4875 87.284L69.9847 99.4294C69.9684 99.4118 69.9508 99.3955 69.9345 99.3779C69.9182 99.3616 69.9006 99.3439 69.883 99.3263C69.8667 99.31 69.8491 99.2924 69.8152 99.2585C69.7975 99.2422 69.7813 99.2246 69.7636 99.207C69.746 99.1894 69.7473 99.1907 69.7473 99.1731C69.7311 99.1568 69.7134 99.1392 69.7134 99.1215C69.6795 99.0714 69.6456 99.0198 69.6294 98.9697C69.6131 98.9534 69.6131 98.9181 69.5955 98.8856C69.5792 98.8517 69.5792 98.834 69.5616 98.8015C69.5453 98.7676 69.5453 98.7174 69.5453 98.6835C69.5453 98.6672 69.5453 98.632 69.5453 98.6157C69.5453 98.5818 69.5453 98.5479 69.5453 98.514C69.5453 98.4462 69.5453 98.3784 69.5616 98.3106L70.9502 90.1793L78.4875 87.284Z" fill="white"/>
<path d="M78.4876 87.284L64.7324 83.2861C64.7324 83.2699 64.7487 83.2522 64.7487 83.2346C64.765 83.2007 64.765 83.1668 64.7826 83.1505C64.8165 83.0827 64.8504 83.0325 64.8843 82.981C64.9006 82.9471 64.9182 82.9295 64.9521 82.8969C64.9697 82.8806 64.986 82.8454 65.0199 82.8291C65.0362 82.8128 65.0715 82.7789 65.0877 82.7613C65.104 82.7437 65.1379 82.7274 65.1555 82.7098C65.1894 82.6935 65.2233 82.6582 65.2572 82.642C65.2735 82.6257 65.3074 82.6081 65.3413 82.6081C65.3929 82.5918 65.4254 82.5742 65.4769 82.5565C65.4932 82.5565 65.5108 82.5403 65.5447 82.5403C65.5786 82.524 65.6288 82.524 65.6804 82.5064L73.8456 81.3211L78.4876 87.284Z" fill="white"/>
<path d="M78.4875 87.2835L70.9502 90.1964L65.0389 84.437C64.9711 84.3855 64.9371 84.319 64.887 84.2512C64.8531 84.1834 64.8029 84.1156 64.7853 84.0478C64.769 84.0139 64.7514 83.98 64.7514 83.9461C64.7175 83.8444 64.6998 83.7264 64.6998 83.6247C64.6998 83.5908 64.6998 83.5569 64.6998 83.523C64.6998 83.4728 64.6998 83.4389 64.7175 83.3874C64.7175 83.3711 64.7337 83.3535 64.7337 83.3196C64.7337 83.3033 64.75 83.2857 64.75 83.2694L78.4875 87.2835Z" fill="#EFF5F3"/>
</g>
</g>
<defs>
<filter id="filter0_d_2001_42902" x="63.6998" y="72.2752" width="29.6" height="28.3728" filterUnits="userSpaceOnUse" color-interpolation-filters="sRGB">
<feFlood flood-opacity="0" result="BackgroundImageFix"/>
<feColorMatrix in="SourceAlpha" type="matrix" values="0 0 0 0 0 0 0 0 0 0 0 0 0 0 0 0 0 0 127 0" result="hardAlpha"/>
<feOffset/>
<feGaussianBlur stdDeviation="0.5"/>
<feComposite in2="hardAlpha" operator="out"/>
<feColorMatrix type="matrix" values="0 0 0 0 0 0 0 0 0 0 0 0 0 0 0 0 0 0 0.1 0"/>
<feBlend mode="normal" in2="BackgroundImageFix" result="effect1_dropShadow_2001_42902"/>
<feBlend mode="normal" in="SourceGraphic" in2="effect1_dropShadow_2001_42902" result="shape"/>
</filter>
<linearGradient id="paint0_linear_2001_42902" x1="27.325" y1="86.5" x2="124.5" y2="86.5" gradientUnits="userSpaceOnUse">
<stop offset="0.00520833" stop-color="#E4E4E4"/>
<stop offset="0.338542" stop-color="#BFBFBF"/>
<stop offset="0.671875" stop-color="#776E6E"/>
<stop offset="1" stop-color="#E6E6E6"/>
</linearGradient>
<linearGradient id="paint1_linear_2001_42902" x1="35.9499" y1="86.5" x2="121.625" y2="86.5" gradientUnits="userSpaceOnUse">
<stop stop-color="white"/>
<stop offset="0.380208" stop-color="#909090"/>
<stop offset="0.720113" stop-color="#DDDDDD"/>
<stop offset="1" stop-color="white"/>
</linearGradient>
<radialGradient id="paint2_radial_2001_42902" cx="0" cy="0" r="1" gradientUnits="userSpaceOnUse" gradientTransform="translate(78.5 86.5) rotate(-0.0660931) scale(36.8)">
<stop offset="0.942708"/>
<stop offset="1" stop-color="white" stop-opacity="0.13"/>
</radialGradient>
<clipPath id="clip0_2001_42902">
<path d="M0 79C0 35.3695 35.3695 0 79 0C122.63 0 158 35.3695 158 79V92.4468C158 136.077 122.63 171.447 79 171.447C35.3695 171.447 0 136.077 0 92.4468V79Z" fill="white"/>
</clipPath>
</defs>
</svg>
