<svg width="158" height="172" viewBox="0 0 158 172" fill="none" xmlns="http://www.w3.org/2000/svg">
<g clip-path="url(#clip0_2001_43032)">
<rect x="8" y="171" width="5.20013" height="2.58" transform="rotate(-147 8 171)" fill="#18A0FC" fill-opacity="0.6"/>
<rect x="29" y="29" width="6.20013" height="1.58" transform="rotate(94 29 29)" fill="#18A0FC" fill-opacity="0.85"/>
<rect x="53" y="136" width="5.20013" height="3.58" transform="rotate(56 53 136)" fill="#F2CB6D" fill-opacity="0.35"/>
<rect x="5" y="124" width="3.20013" height="2.58" transform="rotate(-68 5 124)" fill="#F2CB6D" fill-opacity="0.75"/>
<rect x="12" y="112" width="2.20013" height="1.58" transform="rotate(156 12 112)" fill="#F2CB6D" fill-opacity="0.6"/>
<rect x="65" y="165" width="6.20013" height="1.58" transform="rotate(179 65 165)" fill="#F2CB6D" fill-opacity="0.35"/>
<rect x="100" y="19" width="6.20013" height="2.58" transform="rotate(-42 100 19)" fill="#F2CB6D" fill-opacity="0.9"/>
<rect x="72" y="168" width="2.20013" height="2.58" transform="rotate(62 72 168)" fill="#18A0FC" fill-opacity="0.45"/>
<rect x="152" y="114" width="4.20013" height="1.58" transform="rotate(-179 152 114)" fill="#F2CB6D"/>
<rect x="93" y="34" width="3.20013" height="1.58" transform="rotate(172 93 34)" fill="#18A0FC" fill-opacity="0.75"/>
<rect x="123" y="135" width="2.20013" height="1.58" transform="rotate(-168 123 135)" fill="#18A0FC" fill-opacity="0.45"/>
<rect x="46" y="166" width="4.20013" height="3.58" transform="rotate(22 46 166)" fill="#F2CB6D" fill-opacity="0.75"/>
<circle cx="21.9286" cy="127.929" r="0.928617" fill="#18A0FC"/>
<circle cx="145.429" cy="53.4286" r="1.42862" fill="#E82A2A" fill-opacity="0.85"/>
<circle cx="128.929" cy="48.9286" r="0.928617" fill="#F2CB6D" fill-opacity="0.85"/>
<circle cx="84.9286" cy="41.9286" r="0.928617" fill="#F2CB6D" fill-opacity="0.75"/>
<circle cx="86.9286" cy="112.929" r="0.928617" fill="#64BD87" fill-opacity="0.45"/>
<circle cx="85.9286" cy="41.9286" r="0.928617" fill="#E82A2A" fill-opacity="0.45"/>
<circle cx="41.4286" cy="106.429" r="1.42862" fill="#E82A2A"/>
<circle cx="103.929" cy="49.9286" r="0.928617" fill="#18A0FC"/>
<circle cx="94.9286" cy="69.9286" r="0.928617" fill="#64BD87" fill-opacity="0.45"/>
<circle cx="33.4286" cy="168.429" r="1.42862" fill="#64BD87" fill-opacity="0.35"/>
<circle cx="138.929" cy="99.9286" r="0.928617" fill="#64BD87" fill-opacity="0.75"/>
<circle cx="61.5" cy="113.5" r="0.5" fill="#64BD87" fill-opacity="0.85"/>
<path d="M143.144 137.955L142.47 136.632L143.953 136.71L143.144 137.955Z" fill="#E82A2A" fill-opacity="0.35"/>
<path d="M32.1193 74.1511L32.6471 73.4756L33.496 73.5949L33.8171 74.3897L33.2893 75.0652L32.4404 74.9459L32.1193 74.1511Z" fill="#18A0FC" fill-opacity="0.45"/>
<path d="M19.8246 44.3214L19.8246 41.9706L21.8605 43.146L19.8246 44.3214Z" fill="#64BD87" fill-opacity="0.85"/>
<path d="M36.2199 37.595L36.8448 39.4098L35.0299 40.0347L34.405 38.2199L36.2199 37.595Z" fill="#18A0FC" fill-opacity="0.85"/>
<path d="M8.1644 127.93L7.97551 126.586L9.04503 125.751L10.3034 126.259L10.4923 127.603L9.42281 128.439L8.1644 127.93Z" fill="#F2CB6D" fill-opacity="0.35"/>
<path d="M31.3169 110.672L32.6216 111.046L32.9499 112.363L31.9736 113.305L30.669 112.931L30.3406 111.614L31.3169 110.672Z" fill="#E82A2A" fill-opacity="0.85"/>
<path d="M76.3211 12.7948L75.407 13.9648L74.8508 12.5882L76.3211 12.7948Z" fill="#18A0FC" fill-opacity="0.35"/>
<path d="M124.695 131.374L123.017 130.444L123.947 128.765L125.626 129.695L124.695 131.374Z" fill="#18A0FC" fill-opacity="0.85"/>
<path d="M102.358 109.733L104.525 109.467L105.448 111.446L103.851 112.935L101.942 111.877L102.358 109.733Z" fill="#F2CB6D" fill-opacity="0.85"/>
<path d="M112.759 112.875L114.643 112.509L115.009 114.393L113.125 114.759L112.759 112.875Z" fill="#18A0FC" fill-opacity="0.75"/>
<path d="M132.558 156.717L132.817 155.384L134.1 154.943L135.125 155.833L134.866 157.165L133.582 157.607L132.558 156.717Z" fill="#E82A2A" fill-opacity="0.6"/>
<path d="M117.89 84.9757L119.445 84.6168L120.267 85.9844L119.22 87.1886L117.751 86.5651L117.89 84.9757Z" fill="#64BD87" fill-opacity="0.6"/>
<path d="M61.2754 77.5358L61.8296 78.3006L62.612 77.7715L62.2267 78.6339L63.0762 79.0469L62.1367 79.1444L62.2038 80.0866L61.6496 79.3217L60.8672 79.8509L61.2524 78.9885L60.403 78.5755L61.3425 78.4779L61.2754 77.5358Z" fill="#64BD87" fill-opacity="0.6"/>
<path d="M142.903 165.855L141.523 166.285L140.951 167.612L140.521 166.232L139.193 165.66L140.573 165.23L141.145 163.903L141.575 165.283L142.903 165.855Z" fill="#F2CB6D" fill-opacity="0.85"/>
<path d="M152.206 69.5193L152.072 68.0801L150.893 67.2447L152.332 67.111L153.167 65.9314L153.301 67.3707L154.481 68.206L153.041 68.3397L152.206 69.5193Z" fill="#64BD87" fill-opacity="0.6"/>
<path d="M127.207 122.168L127.804 122.148L127.803 121.552L128.118 122.058L128.635 121.759L128.354 122.285L128.871 122.583L128.275 122.603L128.275 123.2L127.96 122.693L127.444 122.992L127.724 122.466L127.207 122.168Z" fill="#F2CB6D" fill-opacity="0.35"/>
<path d="M132.557 22.1688L131.425 21.4339L130.376 22.2831L130.726 20.9797L129.594 20.2448L130.941 20.1741L131.291 18.8708L131.774 20.1305L133.122 20.0599L132.073 20.9091L132.557 22.1688Z" fill="#64BD87" fill-opacity="0.75"/>
<path d="M69.4415 106.735L69.0341 107.171L69.4565 107.592L68.8754 107.457L68.7217 108.033L68.548 107.463L67.9719 107.618L68.3793 107.182L67.957 106.761L68.5381 106.896L68.6918 106.319L68.8655 106.89L69.4415 106.735Z" fill="#F2CB6D" fill-opacity="0.35"/>
<path d="M9.14531 128.903L8.85614 127.643L7.5877 127.891L8.53408 127.011L7.6849 126.037L8.92045 126.416L9.33971 125.193L9.62888 126.453L10.8973 126.205L9.95094 127.085L10.8001 128.06L9.56457 127.68L9.14531 128.903Z" fill="#64BD87" fill-opacity="0.9"/>
<path d="M145.236 143.611L145.334 142.996L144.779 142.713L145.394 142.615L145.491 142L145.774 142.555L146.389 142.458L145.949 142.898L146.232 143.453L145.677 143.17L145.236 143.611Z" fill="#64BD87" fill-opacity="0.85"/>
<path d="M29.9083 86.4975L30.7015 85.4058L29.9083 84.3142L31.1917 84.7311L31.9848 83.6395L31.9848 84.9888L33.2681 85.4058L31.9848 85.8228L31.9848 87.1721L31.1917 86.0805L29.9083 86.4975Z" fill="#18A0FC" fill-opacity="0.9"/>
<path d="M44.6595 61.7877L44.4524 60.7519L43.5313 60.2348L44.5671 60.0277L45.0841 59.1066L45.2912 60.1424L46.2123 60.6595L45.1765 60.8666L44.6595 61.7877Z" fill="#F2CB6D" fill-opacity="0.45"/>
<path d="M14.151 48.7192L13.9369 49.7536L14.5828 50.5894L13.5484 50.3754L12.7126 51.0212L12.9266 49.9868L12.2808 49.151L13.3152 49.3651L14.151 48.7192Z" fill="#E82A2A"/>
<path d="M120.926 167.993L120.438 168.802L121.231 169.315L120.287 169.297L120.238 170.241L119.781 169.414L118.94 169.844L119.428 169.035L118.635 168.521L119.579 168.539L119.628 167.596L120.085 168.422L120.926 167.993Z" fill="#E82A2A" fill-opacity="0.35"/>
<path d="M77.4891 27.9549C78.2865 27.0354 79.7135 27.0354 80.5109 27.9549L89.5908 38.4244C90.1454 39.0639 91.0424 39.285 91.8306 38.9765L104.736 33.9259C105.869 33.4823 107.133 34.1454 107.412 35.3302L110.586 48.8201C110.78 49.644 111.471 50.2567 112.313 50.3498L126.087 51.8751C127.297 52.009 128.107 53.1834 127.804 54.362L124.345 67.782C124.134 68.6016 124.462 69.4655 125.163 69.9389L136.651 77.6907C137.66 78.3715 137.832 79.788 137.015 80.6905L127.716 90.9661C127.149 91.5937 127.037 92.5109 127.438 93.2562L134.008 105.459C134.585 106.53 134.079 107.864 132.936 108.284L119.927 113.061C119.133 113.353 118.608 114.113 118.617 114.96L118.763 128.817C118.776 130.035 117.708 130.981 116.501 130.821L102.762 129.006C101.923 128.895 101.105 129.324 100.72 130.078L94.409 142.416C93.8548 143.5 92.4693 143.841 91.475 143.139L80.1534 135.147C79.4619 134.659 78.5381 134.659 77.8466 135.147L66.525 143.139C65.5307 143.841 64.1452 143.5 63.591 142.416L57.2804 130.078C56.895 129.324 56.0769 128.895 55.2378 129.006L41.4988 130.821C40.2922 130.981 39.2241 130.035 39.237 128.817L39.3831 114.96C39.3921 114.113 38.8672 113.353 38.0727 113.061L25.0638 108.284C23.9212 107.864 23.4152 106.53 23.9922 105.459L30.5616 93.2562C30.9628 92.5109 30.8514 91.5937 30.2835 90.9661L20.9848 80.6905C20.1681 79.788 20.3401 78.3715 21.349 77.6907L32.8367 69.9389C33.5383 69.4655 33.8659 68.6016 33.6547 67.782L30.1964 54.362C29.8927 53.1834 30.7033 52.009 31.913 51.8751L45.6872 50.3498C46.5285 50.2567 47.2201 49.644 47.4139 48.8201L50.5884 35.3302C50.8672 34.1454 52.1307 33.4823 53.2641 33.9259L66.1694 38.9765C66.9576 39.285 67.8546 39.0639 68.4092 38.4244L77.4891 27.9549Z" fill="url(#paint0_linear_2001_43032)"/>
<g filter="url(#filter0_d_2001_43032)">
<circle cx="79.3" cy="85.9128" r="44.7" fill="url(#paint1_linear_2001_43032)"/>
<circle cx="79.3" cy="85.9128" r="44.2" stroke="white" stroke-opacity="0.3"/>
</g>
<circle cx="79.3" cy="85.9124" r="38.1" fill="url(#paint2_radial_2001_43032)"/>
<circle cx="79.3" cy="85.9124" r="37.6" stroke="white" stroke-opacity="0.4"/>
<circle cx="79.0001" cy="86.2124" r="36.6" fill="url(#paint3_linear_2001_43032)"/>
<g filter="url(#filter1_d_2001_43032)">
<path d="M63.3867 71.8124V87.0393L58.3042 80.5402L62.2812 72.4949C62.5214 72.0527 62.9637 71.8124 63.3867 71.8124Z" fill="white"/>
<path d="M78.3556 82.6953L63.4044 87.0407L68.4854 80.5417L77.3606 81.83C77.8588 81.9214 78.2082 82.2707 78.3556 82.6953Z" fill="#F2F4F5"/>
<path d="M72.6305 100.24L63.3882 87.0389L71.6001 90.1875L73.1096 99.0259C73.2186 99.5418 72.9975 99.9825 72.6305 100.24Z" fill="#EFF5F3"/>
<path d="M63.3868 87.0389V96.1529L55.4505 100.332C54.9906 100.571 54.5116 100.497 54.1431 100.24L63.3868 87.0389Z" fill="#D5DBDD"/>
<path d="M68.4692 80.5402L63.3867 87.0393V71.8124C63.7183 71.8124 64.05 71.9406 64.2888 72.1986C64.3256 72.2355 64.3625 72.29 64.3993 72.346C64.4362 72.402 64.473 72.4566 64.4907 72.5111L68.4692 80.5402Z" fill="#DFE3E6"/>
<path d="M78.3187 83.5237C78.2819 83.5974 78.245 83.6711 78.2082 83.7448C78.1521 83.8185 78.0976 83.873 78.0431 83.9467L71.6177 90.207L63.4058 87.0584L78.357 82.713C78.357 82.7306 78.3747 82.7498 78.3747 82.769C78.3747 82.7881 78.3939 82.8058 78.3939 82.8427C78.3939 82.8618 78.3939 82.8618 78.3939 82.8618C78.3939 82.8795 78.3939 82.8987 78.3939 82.9164C78.3939 82.9532 78.3939 82.9724 78.3939 83.0078C78.4116 83.1729 78.3924 83.3571 78.3187 83.5237Z" fill="#C4C7C6"/>
<path d="M72.6304 100.24C72.539 100.314 72.4284 100.369 72.2987 100.406C72.281 100.406 72.281 100.406 72.2619 100.423C71.9671 100.515 71.6354 100.497 71.3229 100.332L63.3867 96.1529V87.0389L72.6304 100.24Z" fill="#C0C7CE"/>
<path d="M63.3866 87.0389L54.1444 100.24C54.1267 100.221 54.1075 100.204 54.0899 100.184C54.0722 100.167 54.053 100.148 54.0338 100.128C54.0162 100.111 53.997 100.092 53.9601 100.055C53.941 100.037 53.9233 100.018 53.9041 99.9987C53.885 99.9796 53.8864 99.981 53.8864 99.9619C53.8688 99.9442 53.8496 99.925 53.8496 99.9059C53.8127 99.8513 53.7759 99.7953 53.7582 99.7408C53.7405 99.7231 53.7405 99.6848 53.7213 99.6494C53.7037 99.6125 53.7037 99.5934 53.6845 99.558C53.6668 99.5211 53.6668 99.4666 53.6668 99.4297C53.6668 99.4121 53.6668 99.3737 53.6668 99.356C53.6668 99.3192 53.6668 99.2823 53.6668 99.2455C53.6668 99.1718 53.6668 99.0981 53.6845 99.0244L55.1939 90.186L63.3866 87.0389Z" fill="white"/>
<path d="M63.3868 87.0389L48.4355 82.6934C48.4355 82.6757 48.4532 82.6565 48.4532 82.6374C48.4709 82.6005 48.4709 82.5637 48.4901 82.546C48.5269 82.4723 48.5638 82.4177 48.6006 82.3617C48.6183 82.3249 48.6375 82.3057 48.6743 82.2703C48.6935 82.2526 48.7112 82.2143 48.748 82.1966C48.7657 82.1789 48.8041 82.1421 48.8217 82.1229C48.8394 82.1038 48.8763 82.0861 48.8954 82.0669C48.9323 82.0492 48.9692 82.0109 49.006 81.9932C49.0237 81.9755 49.0605 81.9564 49.0974 81.9564C49.1534 81.9387 49.1888 81.9195 49.2448 81.9003C49.2625 81.9003 49.2816 81.8827 49.3185 81.8827C49.3554 81.865 49.4099 81.865 49.4659 81.8458L58.3411 80.5575L63.3868 87.0389Z" fill="white"/>
<path d="M63.3867 87.0388L55.194 90.2051L48.7687 83.9448C48.695 83.8888 48.6581 83.8166 48.6036 83.7429C48.5667 83.6692 48.5122 83.5955 48.493 83.5218C48.4753 83.4849 48.4562 83.4481 48.4562 83.4112C48.4193 83.3007 48.4001 83.1724 48.4001 83.0619C48.4001 83.025 48.4001 82.9882 48.4001 82.9513C48.4001 82.8968 48.4001 82.8599 48.4193 82.8039C48.4193 82.7862 48.437 82.767 48.437 82.7302C48.437 82.7125 48.4547 82.6933 48.4547 82.6757L63.3867 87.0388Z" fill="#EFF5F3"/>
</g>
<g filter="url(#filter2_d_2001_43032)">
<path d="M95.7865 71.8124V87.0393L90.704 80.5402L94.681 72.4949C94.9213 72.0527 95.3635 71.8124 95.7865 71.8124Z" fill="white"/>
<path d="M110.755 82.6953L95.8042 87.0407L100.885 80.5417L109.76 81.83C110.259 81.9214 110.608 82.2707 110.755 82.6953Z" fill="#F2F4F5"/>
<path d="M105.03 100.24L95.7881 87.0389L104 90.1875L105.509 99.0259C105.618 99.5418 105.397 99.9825 105.03 100.24Z" fill="#EFF5F3"/>
<path d="M95.7866 87.0389V96.1529L87.8503 100.332C87.3904 100.571 86.9114 100.497 86.5428 100.24L95.7866 87.0389Z" fill="#D5DBDD"/>
<path d="M100.869 80.5402L95.7864 87.0393V71.8124C96.1181 71.8124 96.4498 71.9406 96.6886 72.1986C96.7254 72.2355 96.7623 72.29 96.7991 72.346C96.836 72.402 96.8728 72.4566 96.8905 72.5111L100.869 80.5402Z" fill="#DFE3E6"/>
<path d="M110.719 83.5237C110.682 83.5974 110.645 83.6711 110.608 83.7448C110.552 83.8185 110.497 83.873 110.443 83.9467L104.018 90.207L95.8057 87.0584L110.757 82.713C110.757 82.7306 110.775 82.7498 110.775 82.769C110.775 82.7881 110.794 82.8058 110.794 82.8427C110.794 82.8618 110.794 82.8618 110.794 82.8618C110.794 82.8795 110.794 82.8987 110.794 82.9164C110.794 82.9532 110.794 82.9724 110.794 83.0078C110.811 83.1729 110.792 83.3571 110.719 83.5237Z" fill="#C4C7C6"/>
<path d="M105.03 100.24C104.939 100.314 104.828 100.369 104.699 100.406C104.681 100.406 104.681 100.406 104.662 100.423C104.367 100.515 104.035 100.497 103.723 100.332L95.7865 96.1529V87.0389L105.03 100.24Z" fill="#C0C7CE"/>
<path d="M95.7865 87.0389L86.5442 100.24C86.5266 100.221 86.5074 100.204 86.4897 100.184C86.472 100.167 86.4528 100.148 86.4337 100.128C86.416 100.111 86.3968 100.092 86.36 100.055C86.3408 100.037 86.3231 100.018 86.304 99.9987C86.2848 99.9796 86.2863 99.981 86.2863 99.9619C86.2686 99.9442 86.2494 99.925 86.2494 99.9059C86.2126 99.8513 86.1757 99.7953 86.158 99.7408C86.1404 99.7231 86.1404 99.6848 86.1212 99.6494C86.1035 99.6125 86.1035 99.5934 86.0843 99.558C86.0666 99.5211 86.0667 99.4666 86.0667 99.4297C86.0667 99.4121 86.0667 99.3737 86.0667 99.356C86.0667 99.3192 86.0667 99.2823 86.0667 99.2455C86.0667 99.1718 86.0666 99.0981 86.0843 99.0244L87.5938 90.186L95.7865 87.0389Z" fill="white"/>
<path d="M95.7866 87.0389L80.8354 82.6934C80.8354 82.6757 80.8531 82.6565 80.8531 82.6374C80.8708 82.6005 80.8708 82.5637 80.8899 82.546C80.9268 82.4723 80.9636 82.4177 81.0005 82.3617C81.0182 82.3249 81.0373 82.3057 81.0742 82.2703C81.0933 82.2526 81.111 82.2143 81.1479 82.1966C81.1656 82.1789 81.2039 82.1421 81.2216 82.1229C81.2393 82.1038 81.2761 82.0861 81.2953 82.0669C81.3321 82.0492 81.369 82.0109 81.4058 81.9932C81.4235 81.9755 81.4604 81.9564 81.4972 81.9564C81.5532 81.9387 81.5886 81.9195 81.6446 81.9003C81.6623 81.9003 81.6815 81.8827 81.7183 81.8827C81.7552 81.865 81.8097 81.865 81.8657 81.8458L90.741 80.5575L95.7866 87.0389Z" fill="white"/>
<path d="M95.7865 87.0388L87.5938 90.2051L81.1684 83.9448C81.0947 83.8888 81.0579 83.8166 81.0033 83.7429C80.9665 83.6692 80.912 83.5955 80.8928 83.5218C80.8751 83.4849 80.8559 83.4481 80.8559 83.4112C80.8191 83.3007 80.7999 83.1724 80.7999 83.0619C80.7999 83.025 80.7999 82.9882 80.7999 82.9513C80.7999 82.8968 80.7999 82.8599 80.8191 82.8039C80.8191 82.7862 80.8368 82.767 80.8368 82.7302C80.8368 82.7125 80.8545 82.6933 80.8545 82.6757L95.7865 87.0388Z" fill="#EFF5F3"/>
</g>
</g>
<defs>
<filter id="filter0_d_2001_43032" x="29.6" y="37.2128" width="99.4" height="99.4" filterUnits="userSpaceOnUse" color-interpolation-filters="sRGB">
<feFlood flood-opacity="0" result="BackgroundImageFix"/>
<feColorMatrix in="SourceAlpha" type="matrix" values="0 0 0 0 0 0 0 0 0 0 0 0 0 0 0 0 0 0 127 0" result="hardAlpha"/>
<feOffset dy="1"/>
<feGaussianBlur stdDeviation="2.5"/>
<feComposite in2="hardAlpha" operator="out"/>
<feColorMatrix type="matrix" values="0 0 0 0 0 0 0 0 0 0 0 0 0 0 0 0 0 0 0.25 0"/>
<feBlend mode="normal" in2="BackgroundImageFix" result="effect1_dropShadow_2001_43032"/>
<feBlend mode="normal" in="SourceGraphic" in2="effect1_dropShadow_2001_43032" result="shape"/>
</filter>
<filter id="filter1_d_2001_43032" x="46.4001" y="69.8124" width="33.9999" height="32.6657" filterUnits="userSpaceOnUse" color-interpolation-filters="sRGB">
<feFlood flood-opacity="0" result="BackgroundImageFix"/>
<feColorMatrix in="SourceAlpha" type="matrix" values="0 0 0 0 0 0 0 0 0 0 0 0 0 0 0 0 0 0 127 0" result="hardAlpha"/>
<feOffset/>
<feGaussianBlur stdDeviation="1"/>
<feComposite in2="hardAlpha" operator="out"/>
<feColorMatrix type="matrix" values="0 0 0 0 0 0 0 0 0 0 0 0 0 0 0 0 0 0 0.15 0"/>
<feBlend mode="normal" in2="BackgroundImageFix" result="effect1_dropShadow_2001_43032"/>
<feBlend mode="normal" in="SourceGraphic" in2="effect1_dropShadow_2001_43032" result="shape"/>
</filter>
<filter id="filter2_d_2001_43032" x="78.7999" y="69.8124" width="33.9999" height="32.6657" filterUnits="userSpaceOnUse" color-interpolation-filters="sRGB">
<feFlood flood-opacity="0" result="BackgroundImageFix"/>
<feColorMatrix in="SourceAlpha" type="matrix" values="0 0 0 0 0 0 0 0 0 0 0 0 0 0 0 0 0 0 127 0" result="hardAlpha"/>
<feOffset/>
<feGaussianBlur stdDeviation="1"/>
<feComposite in2="hardAlpha" operator="out"/>
<feColorMatrix type="matrix" values="0 0 0 0 0 0 0 0 0 0 0 0 0 0 0 0 0 0 0.15 0"/>
<feBlend mode="normal" in2="BackgroundImageFix" result="effect1_dropShadow_2001_43032"/>
<feBlend mode="normal" in="SourceGraphic" in2="effect1_dropShadow_2001_43032" result="shape"/>
</filter>
<linearGradient id="paint0_linear_2001_43032" x1="25.6" y1="86.2128" x2="127" y2="86.2128" gradientUnits="userSpaceOnUse">
<stop offset="0.00520833" stop-color="#E28C38"/>
<stop offset="0.338542" stop-color="#F1C69C"/>
<stop offset="0.671875" stop-color="#E6B789"/>
<stop offset="1" stop-color="#E28C38"/>
</linearGradient>
<linearGradient id="paint1_linear_2001_43032" x1="34.6" y1="86.2128" x2="124" y2="86.2128" gradientUnits="userSpaceOnUse">
<stop stop-color="#F0B174"/>
<stop offset="0.380208" stop-color="#CF965F"/>
<stop offset="0.720113" stop-color="#C98D53"/>
<stop offset="1" stop-color="#EAA25D"/>
</linearGradient>
<radialGradient id="paint2_radial_2001_43032" cx="0" cy="0" r="1" gradientUnits="userSpaceOnUse" gradientTransform="translate(79 86.2124) rotate(-0.0660931) scale(38.4)">
<stop offset="0.942708" stop-color="#717171"/>
<stop offset="1" stop-color="white" stop-opacity="0.13"/>
</radialGradient>
<linearGradient id="paint3_linear_2001_43032" x1="48.7001" y1="62.5124" x2="114.4" y2="96.7124" gradientUnits="userSpaceOnUse">
<stop offset="0.432133" stop-color="white"/>
<stop offset="0.905325" stop-color="white" stop-opacity="0.68"/>
</linearGradient>
<clipPath id="clip0_2001_43032">
<rect width="158" height="171.447" fill="white"/>
</clipPath>
</defs>
</svg>
