<svg width="158" height="172" viewBox="0 0 158 172" fill="none" xmlns="http://www.w3.org/2000/svg">
<g clip-path="url(#clip0_2001_43122)">
<g clip-path="url(#clip1_2001_43122)">
<path d="M81.2376 97.7968L95.123 93.334L110.383 140.813L100.241 156.921L81.2376 97.7968Z" fill="#EF2B2B"/>
<path d="M109.008 88.8712L95.1231 93.334L110.383 140.813L128.011 147.996L109.008 88.8712Z" fill="#B70808"/>
<path d="M51.1754 88.8712L64.623 94.5177L45.3158 140.5L27.1326 146.132L51.1754 88.8712Z" fill="#EF2B2B"/>
<path d="M78.0705 100.164L64.623 94.5177L45.3158 140.5L54.0276 157.425L78.0705 100.164Z" fill="#B70808"/>
<path d="M73.2656 16.3662L61.9367 26.2308H78.1837V14.5353C76.4303 14.5297 74.6751 15.14 73.2656 16.3662Z" fill="#6F82EB"/>
<path d="M83.0396 16.3548C81.6453 15.1475 79.9165 14.541 78.1858 14.5353V26.2308H94.4328L83.0396 16.3548Z" fill="url(#paint0_linear_2001_43122)"/>
<path d="M38.6631 32.5395L36.3259 47.3789L48.7715 36.9361L41.2535 27.9766C39.9064 29.0989 38.9541 30.6954 38.6631 32.5395Z" fill="#2847EC"/>
<path d="M46.1432 26.2492C44.2991 26.219 42.5836 26.867 41.2553 27.9761L48.7733 36.9357L61.2188 26.4929L46.1432 26.2492Z" fill="url(#paint1_linear_2001_43122)"/>
<path d="M22.554 67.1728L30.3006 80.0434L33.1215 64.0439L21.6055 62.0109C21.2938 63.7378 21.5904 65.5724 22.554 67.1728Z" fill="#2747F1"/>
<path d="M24.2393 57.5458C22.809 58.7097 21.9116 60.3081 21.6055 62.0105L33.1233 64.0416L35.9442 48.0421L24.2393 57.5458Z" fill="url(#paint2_linear_2001_43122)"/>
<path d="M32.4733 104.057L46.6817 108.936L38.5591 94.8654L28.43 100.713C29.301 102.236 30.7067 103.451 32.4733 104.057Z" fill="url(#paint3_linear_2001_43122)"/>
<path d="M27.578 95.6003C27.2284 97.4104 27.5685 99.2129 28.4282 100.715L38.5573 94.8672L30.4348 80.7968L27.578 95.6003Z" fill="url(#paint4_linear_2001_43122)"/>
<path d="M63.781 125.937L77.8004 120.542L62.534 114.986L58.5341 125.976C60.1798 126.581 62.0389 126.607 63.781 125.937Z" fill="url(#paint5_linear_2001_43122)"/>
<path d="M54.5947 122.604C55.4903 124.215 56.9093 125.377 58.5341 125.974L62.534 114.984L47.2676 109.427L54.5947 122.604Z" fill="url(#paint6_linear_2001_43122)"/>
<path d="M101.83 122.574L109.102 109.429L93.8358 114.986L97.8357 125.976C99.4832 125.381 100.925 124.208 101.83 122.574Z" fill="url(#paint7_linear_2001_43122)"/>
<path d="M92.6491 125.925C94.3722 126.585 96.2049 126.562 97.8336 125.974L93.8337 114.984L78.5673 120.541L92.6491 125.925Z" fill="url(#paint8_linear_2001_43122)"/>
<path d="M128.812 95.5399L125.935 80.7968L117.812 94.8672L127.941 100.715C128.822 99.1977 129.171 97.3726 128.812 95.5399Z" fill="url(#paint9_linear_2001_43122)"/>
<path d="M123.936 104.008C125.678 103.405 127.068 102.209 127.939 100.713L117.81 94.8654L109.688 108.936L123.936 104.008Z" fill="url(#paint10_linear_2001_43122)"/>
<path d="M132.106 57.4854L120.423 48.0421L123.244 64.0416L134.762 62.0105C134.465 60.2836 133.559 58.6606 132.106 57.4854Z" fill="url(#paint11_linear_2001_43122)"/>
<path d="M133.814 67.1085C134.762 65.5271 135.059 63.717 134.762 62.0109L123.245 64.042L126.065 80.0415L133.814 67.1085Z" fill="url(#paint12_linear_2001_43122)"/>
<path d="M110.17 26.2172L95.1507 26.4912L107.596 36.9339L115.114 27.9744C113.775 26.8445 112.038 26.1832 110.17 26.2172Z" fill="url(#paint13_linear_2001_43122)"/>
<path d="M117.663 32.4922C117.372 30.6709 116.437 29.0951 115.114 27.9785L107.596 36.938L120.042 47.3808L117.663 32.4922Z" fill="url(#paint14_linear_2001_43122)"/>
<path d="M78.1012 111.768C100.014 111.768 117.779 94.0042 117.779 72.0908C117.779 50.1775 100.014 32.4133 78.1012 32.4133C56.1879 32.4133 38.4236 50.1775 38.4236 72.0908C38.4236 94.0042 56.1879 111.768 78.1012 111.768Z" fill="url(#paint15_radial_2001_43122)"/>
<path d="M78.1836 28.7668C54.3128 28.7668 34.9615 48.1162 34.9615 71.987C34.9615 95.8578 54.3128 115.209 78.1836 115.209C102.054 115.209 121.406 95.8578 121.406 71.987C121.406 48.1162 102.054 28.7668 78.1836 28.7668ZM78.1836 111.661C56.2721 111.661 38.5098 93.8985 38.5098 71.987C38.5098 50.0756 56.2721 32.3132 78.1836 32.3132C100.095 32.3132 117.857 50.0756 117.857 71.987C117.857 93.8985 100.095 111.661 78.1836 111.661Z" fill="url(#paint16_linear_2001_43122)"/>
<path d="M78.1839 23.2512C51.2674 23.2512 29.4485 45.0701 29.4485 71.9866C29.4485 98.9031 51.2674 120.722 78.1839 120.722C105.1 120.722 126.919 98.9031 126.919 71.9866C126.919 45.0701 105.1 23.2512 78.1839 23.2512ZM78.1839 115.188C54.3245 115.188 34.9826 95.846 34.9826 71.9866C34.9826 48.1271 54.3245 28.7872 78.1839 28.7872C102.043 28.7872 121.385 48.129 121.385 71.9884C121.385 95.8479 102.043 115.188 78.1839 115.188Z" fill="url(#paint17_linear_2001_43122)"/>
<path d="M67.2443 91.871C66.583 91.871 65.969 91.6594 65.4267 91.2815C65.3568 91.2343 65.3096 91.187 65.2624 91.1398C65.2151 91.1171 65.1906 91.0699 65.1679 91.0453C65.0734 90.9735 65.0262 90.9036 64.9563 90.8337C64.909 90.7865 64.8845 90.7392 64.8391 90.692L64.8165 90.6693C64.7692 90.6221 64.7447 90.5749 64.722 90.5276L64.6747 90.4558C64.5803 90.3141 64.5104 90.1724 64.4386 90.0307C64.4159 89.9608 64.3913 89.889 64.3668 89.8191C64.3441 89.7473 64.3195 89.6547 64.2969 89.5829C64.2723 89.4885 64.2496 89.3713 64.2251 89.2523C64.2251 89.205 64.2024 89.1351 64.2024 89.0879C64.2024 88.9934 64.1797 88.899 64.1797 88.8045C64.1797 88.6401 64.2024 88.4738 64.227 88.2849L66.0446 77.7118L58.3736 70.2297C58.2319 70.088 58.0902 69.9236 57.973 69.7574C57.8313 69.5458 57.7368 69.3795 57.6669 69.1906C57.6443 69.1206 57.597 69.0262 57.5725 68.9071C57.5007 68.6237 57.4553 68.3403 57.4553 68.0342C57.4553 67.9398 57.4553 67.8699 57.4553 67.7754C57.4553 67.6337 57.478 67.492 57.5252 67.3503C57.5252 67.3276 57.5479 67.2804 57.5479 67.2558C57.5725 67.184 57.5725 67.1141 57.5951 67.0442C57.5951 67.0215 57.6178 66.9724 57.6424 66.9025C57.665 66.8307 57.6896 66.7608 57.7368 66.6909C57.8068 66.5492 57.8785 66.4075 57.9957 66.2431C58.0429 66.1486 58.1128 66.0787 58.1846 66.0069C58.1846 66.0069 58.1846 65.9842 58.2073 65.9842L58.5852 65.3702H58.9158C58.9631 65.3456 58.9857 65.3229 59.033 65.2984C59.0802 65.2757 59.1747 65.2285 59.2446 65.1812C59.3391 65.134 59.4562 65.0868 59.5979 65.0395C59.6451 65.0169 59.7151 64.9923 59.7869 64.9923C59.8813 64.9696 59.9758 64.9451 60.0929 64.9205L70.7133 63.3863L75.3858 53.8278C75.9054 52.7659 76.9672 52.1046 78.1462 52.1046C78.9965 52.1046 79.8221 52.458 80.4116 53.072C80.5061 53.1892 80.6006 53.2836 80.6705 53.4027C80.7649 53.5444 80.8594 53.6861 80.9293 53.8278L85.6736 63.409L96.2694 64.9432C97.4503 65.1075 98.4177 65.9351 98.771 67.0669C98.7956 67.1387 98.8182 67.184 98.8182 67.2558C98.8182 67.2785 98.8182 67.2785 98.8409 67.303C98.8636 67.3748 98.8881 67.4447 98.8881 67.5392C98.8881 67.5619 98.8881 67.5619 98.8881 67.5864C98.9108 67.6809 98.9108 67.7508 98.9108 67.8453C98.9354 68.2931 98.8636 68.7654 98.6746 69.1906C98.6028 69.3795 98.5103 69.5439 98.3912 69.7101L98.3667 69.7328C98.2495 69.8972 98.1078 70.0635 97.9661 70.2052L90.2951 77.6872L92.1127 88.2358C92.3017 89.3921 91.8539 90.5484 90.8846 91.2569C90.6484 91.4213 90.365 91.5876 90.0816 91.6821C90.057 91.6821 90.0344 91.7066 89.9871 91.7066C89.681 91.8011 89.3731 91.8483 89.067 91.8483C88.572 91.8483 88.0751 91.7312 87.6273 91.495L78.1406 86.5145L68.6538 91.495C68.2344 91.7539 67.7394 91.871 67.2443 91.871Z" fill="#E7E7E7"/>
<path d="M78.1461 53.6143V73.1319L71.6314 64.8015L76.7291 54.4891C77.037 53.9223 77.6039 53.6143 78.1461 53.6143Z" fill="#B820A9"/>
<path d="M97.3331 67.5633L78.1688 73.1333L84.6816 64.8029L96.0577 66.4542C96.6963 66.5714 97.1441 67.0192 97.3331 67.5633Z" fill="#A80CCF"/>
<path d="M89.9948 90.0534L78.1482 73.1319L88.6741 77.1676L90.6088 88.4965C90.7486 89.1578 90.4652 89.7227 89.9948 90.0534Z" fill="#CF0CBC"/>
<path d="M78.1462 73.1319V84.8141L67.9736 90.1705C67.3841 90.4766 66.7701 90.3822 66.2977 90.0534L78.1462 73.1319Z" fill="#AC289F"/>
<path d="M84.6607 64.8015L78.1461 73.1319V53.6143C78.5712 53.6143 78.9963 53.7787 79.3024 54.1093C79.3496 54.1566 79.3968 54.2265 79.4441 54.2983C79.4913 54.3701 79.5385 54.44 79.5612 54.5099L84.6607 64.8015Z" fill="#CF0CBC"/>
<path d="M97.2859 68.6253C97.2387 68.7197 97.1914 68.8142 97.1442 68.9087C97.0724 69.0031 97.0025 69.0731 96.9326 69.1675L88.6967 77.1918L78.1708 73.1561L97.335 67.5861C97.335 67.6088 97.3577 67.6333 97.3577 67.6579C97.3577 67.6825 97.3823 67.7051 97.3823 67.7524C97.3823 67.7769 97.3823 67.7769 97.3823 67.7769C97.3823 67.7996 97.3823 67.8242 97.3823 67.8468C97.3823 67.8941 97.3823 67.9186 97.3823 67.964C97.4049 68.1756 97.3804 68.4118 97.2859 68.6253Z" fill="#E63ED5"/>
<path d="M89.9945 90.0534C89.8774 90.1479 89.7357 90.2178 89.5694 90.265C89.5467 90.265 89.5467 90.265 89.5222 90.2877C89.1443 90.4048 88.7192 90.3822 88.3186 90.1705L78.1461 84.8141V73.1319L89.9945 90.0534Z" fill="#ED28D9"/>
<path d="M78.1462 73.1319L66.2996 90.0534C66.2769 90.0288 66.2523 90.0062 66.2297 89.9816C66.207 89.9589 66.1824 89.9344 66.1579 89.9098C66.1352 89.8871 66.1106 89.8626 66.0634 89.8153C66.0388 89.7927 66.0162 89.7681 65.9916 89.7435C65.967 89.719 65.9689 89.7209 65.9689 89.6963C65.9463 89.6736 65.9217 89.6491 65.9217 89.6245C65.8745 89.5546 65.8272 89.4828 65.8046 89.4129C65.7819 89.3902 65.7819 89.3411 65.7573 89.2957C65.7346 89.2485 65.7346 89.2239 65.7101 89.1786C65.6874 89.1314 65.6874 89.0615 65.6874 89.0142C65.6874 88.9915 65.6874 88.9424 65.6874 88.9198C65.6874 88.8725 65.6874 88.8253 65.6874 88.778C65.6874 88.6836 65.6874 88.5891 65.7101 88.4946L67.6448 77.1658L78.1462 73.1319Z" fill="#D133C1"/>
<path d="M78.1461 73.1319L58.9818 67.5619C58.9818 67.5392 59.0045 67.5147 59.0045 67.4901C59.0272 67.4429 59.0272 67.3956 59.0518 67.373C59.099 67.2785 59.1462 67.2086 59.1935 67.1368C59.2161 67.0896 59.2407 67.065 59.2879 67.0196C59.3125 66.997 59.3352 66.9479 59.3824 66.9252C59.4051 66.9025 59.4542 66.8553 59.4769 66.8307C59.4995 66.8061 59.5468 66.7835 59.5713 66.7589C59.6186 66.7362 59.6658 66.6871 59.713 66.6644C59.7357 66.6418 59.783 66.6172 59.8302 66.6172C59.902 66.5945 59.9473 66.57 60.0191 66.5454C60.0418 66.5454 60.0664 66.5227 60.1136 66.5227C60.1608 66.5001 60.2307 66.5001 60.3025 66.4755L71.6787 64.8242L78.1461 73.1319Z" fill="#EC24D8"/>
<path d="M78.1461 73.1319L67.6448 77.1903L59.4088 69.166C59.3144 69.0942 59.2671 69.0016 59.1972 68.9072C59.15 68.8127 59.0801 68.7182 59.0555 68.6238C59.0329 68.5765 59.0083 68.5293 59.0083 68.4821C58.9611 68.3404 58.9365 68.176 58.9365 68.0343C58.9365 67.987 58.9365 67.9398 58.9365 67.8926C58.9365 67.8227 58.9365 67.7754 58.9611 67.7036C58.9611 67.681 58.9837 67.6564 58.9837 67.6092C58.9837 67.5865 59.0064 67.5619 59.0064 67.5392L78.1461 73.1319Z" fill="#B736AA"/>
<rect x="33" y="40.4473" width="2.19633" height="1.575" transform="rotate(70 33 40.4473)" fill="#E82A2A" fill-opacity="0.6"/>
<rect x="76" y="58.4473" width="4.19633" height="3.575" transform="rotate(-168 76 58.4473)" fill="#64BD87" fill-opacity="0.9"/>
<rect x="147" y="75.4473" width="7.19633" height="2.575" transform="rotate(-43 147 75.4473)" fill="#E82A2A" fill-opacity="0.85"/>
<rect x="60" y="68.4473" width="2.19633" height="1.575" transform="rotate(-154 60 68.4473)" fill="#E82A2A" fill-opacity="0.85"/>
<rect x="104" y="93.4473" width="6.19633" height="1.575" transform="rotate(171 104 93.4473)" fill="#E82A2A" fill-opacity="0.65"/>
<rect x="45" y="104.447" width="1.19633" height="2.575" transform="rotate(-107 45 104.447)" fill="#64BD87" fill-opacity="0.85"/>
<rect x="92" y="64.4473" width="3.19633" height="1.575" transform="rotate(-53 92 64.4473)" fill="#64BD87" fill-opacity="0.85"/>
<rect x="7" y="155.447" width="3.19633" height="1.575" transform="rotate(-100 7 155.447)" fill="#F2CB6D" fill-opacity="0.9"/>
<rect x="47" y="87.4473" width="5.19633" height="3.575" transform="rotate(137 47 87.4473)" fill="#E82A2A" fill-opacity="0.65"/>
<rect x="100" y="7.44727" width="5.19633" height="2.575" transform="rotate(-145 100 7.44727)" fill="#18A0FC" fill-opacity="0.85"/>
<rect x="137" y="60.4473" width="6.19633" height="2.575" transform="rotate(80 137 60.4473)" fill="#18A0FC" fill-opacity="0.75"/>
<rect x="76" y="65.4473" width="5.19633" height="3.575" transform="rotate(-91 76 65.4473)" fill="#E82A2A" fill-opacity="0.75"/>
<rect x="157" y="28.4473" width="1.19633" height="2.575" transform="rotate(43 157 28.4473)" fill="#F2CB6D"/>
<rect x="10" y="43.4473" width="4.19633" height="2.575" transform="rotate(-75 10 43.4473)" fill="#F2CB6D" fill-opacity="0.9"/>
<rect x="147" y="10.4473" width="5.19633" height="2.575" transform="rotate(159 147 10.4473)" fill="#18A0FC" fill-opacity="0.35"/>
<rect x="123" y="34.4473" width="1.19633" height="1.575" transform="rotate(-73 123 34.4473)" fill="#18A0FC" fill-opacity="0.45"/>
<rect x="13" y="157.447" width="3.19633" height="3.575" transform="rotate(48 13 157.447)" fill="#64BD87" fill-opacity="0.35"/>
<rect x="137" y="87.4473" width="6.19633" height="1.575" transform="rotate(169 137 87.4473)" fill="#64BD87"/>
<rect x="88" y="76.4473" width="6.19633" height="2.575" transform="rotate(-16 88 76.4473)" fill="#64BD87" fill-opacity="0.75"/>
<rect x="115" y="5.44727" width="6.19633" height="1.575" transform="rotate(-28 115 5.44727)" fill="#64BD87" fill-opacity="0.9"/>
<rect x="78" y="109.447" width="2.19633" height="2.575" transform="rotate(-32 78 109.447)" fill="#18A0FC" fill-opacity="0.35"/>
<rect x="139" y="93.4473" width="3.19633" height="2.575" transform="rotate(-40 139 93.4473)" fill="#64BD87" fill-opacity="0.45"/>
<rect x="45" y="105.447" width="5.19633" height="1.575" transform="rotate(17 45 105.447)" fill="#64BD87" fill-opacity="0.9"/>
<rect x="81" y="19.4473" width="1.19633" height="2.575" transform="rotate(-107 81 19.4473)" fill="#18A0FC" fill-opacity="0.9"/>
<rect x="129" y="169.447" width="2.19633" height="3.575" transform="rotate(-81 129 169.447)" fill="#F2CB6D" fill-opacity="0.45"/>
<circle cx="26.5" cy="37.9473" r="0.5" fill="#F2CB6D" fill-opacity="0.65"/>
<circle cx="127.927" cy="105.375" r="0.927261" fill="#F2CB6D" fill-opacity="0.35"/>
<circle cx="64.9273" cy="77.3745" r="0.927261" fill="#E82A2A" fill-opacity="0.6"/>
<circle cx="36.5" cy="52.9473" r="0.5" fill="#64BD87" fill-opacity="0.65"/>
<circle cx="80.5" cy="90.9473" r="0.5" fill="#64BD87" fill-opacity="0.85"/>
<circle cx="8.42726" cy="73.8745" r="1.42726" fill="#18A0FC" fill-opacity="0.75"/>
<circle cx="16.9273" cy="157.375" r="0.927261" fill="#E82A2A" fill-opacity="0.6"/>
<circle cx="138.927" cy="143.375" r="0.927261" fill="#E82A2A" fill-opacity="0.65"/>
<circle cx="4.92726" cy="143.375" r="0.927261" fill="#F2CB6D" fill-opacity="0.6"/>
<circle cx="49.5" cy="23.9473" r="0.5" fill="#F2CB6D" fill-opacity="0.75"/>
<circle cx="50.5" cy="80.9473" r="0.5" fill="#64BD87" fill-opacity="0.6"/>
<circle cx="110.927" cy="33.3745" r="0.927261" fill="#64BD87"/>
<circle cx="45.5" cy="130.947" r="0.5" fill="#18A0FC"/>
<circle cx="22.9273" cy="16.3745" r="0.927261" fill="#E82A2A" fill-opacity="0.9"/>
<circle cx="78.9273" cy="154.375" r="0.927261" fill="#F2CB6D" fill-opacity="0.45"/>
<circle cx="115.5" cy="47.9473" r="0.5" fill="#18A0FC" fill-opacity="0.65"/>
<circle cx="100.427" cy="54.8745" r="1.42726" fill="#18A0FC" fill-opacity="0.45"/>
<circle cx="96.5" cy="87.9473" r="0.5" fill="#F2CB6D" fill-opacity="0.75"/>
<circle cx="55.9273" cy="112.375" r="0.927261" fill="#E82A2A" fill-opacity="0.35"/>
<circle cx="143.427" cy="139.875" r="1.42726" fill="#64BD87" fill-opacity="0.85"/>
<circle cx="53.9273" cy="36.3745" r="0.927261" fill="#18A0FC" fill-opacity="0.9"/>
<circle cx="24.9273" cy="111.375" r="0.927261" fill="#64BD87" fill-opacity="0.75"/>
<circle cx="105.427" cy="140.875" r="1.42726" fill="#F2CB6D" fill-opacity="0.75"/>
<circle cx="40.5" cy="66.9473" r="0.5" fill="#18A0FC" fill-opacity="0.85"/>
<path d="M1.02982 163.593L1.48265 162.869L2.33665 162.898L2.73782 163.653L2.285 164.378L1.431 164.348L1.02982 163.593Z" fill="#18A0FC" fill-opacity="0.35"/>
<path d="M154.365 17.0191L153.529 17.1967L152.957 16.5617L153.221 15.749L154.057 15.5713L154.629 16.2064L154.365 17.0191Z" fill="#F2CB6D" fill-opacity="0.65"/>
<path d="M93.7574 163.324L95.2537 162.78L96.2341 164.034L95.3437 165.355L93.813 164.916L93.7574 163.324Z" fill="#F2CB6D" fill-opacity="0.85"/>
<path d="M42.2807 64.0063L44.0513 65.5455L41.8331 66.3093L42.2807 64.0063Z" fill="#F2CB6D" fill-opacity="0.75"/>
<path d="M108.56 103.715L108.545 102.86L109.277 102.42L110.025 102.835L110.04 103.689L109.307 104.129L108.56 103.715Z" fill="#18A0FC" fill-opacity="0.75"/>
<path d="M156.866 67.2913L155.485 67.8217L155.716 66.3598L156.866 67.2913Z" fill="#F2CB6D" fill-opacity="0.65"/>
<path d="M103.772 112.02L102.423 111.902L101.851 110.674L102.627 109.564L103.977 109.683L104.549 110.91L103.772 112.02Z" fill="#18A0FC" fill-opacity="0.9"/>
<path d="M89.3192 44.231L87.1792 43.815L86.9135 41.6512L88.8893 40.7298L90.3762 42.3242L89.3192 44.231Z" fill="#E82A2A" fill-opacity="0.65"/>
<path d="M130.281 13.8883L131.194 15.1926L130.236 16.4643L128.73 15.9459L128.758 14.3538L130.281 13.8883Z" fill="#64BD87" fill-opacity="0.9"/>
<path d="M147.4 75.6639L147.89 77.7882L146.021 78.911L144.376 77.4807L145.228 75.4739L147.4 75.6639Z" fill="#F2CB6D" fill-opacity="0.65"/>
<path d="M144.581 143.159L144.863 141.834L146.151 141.416L147.158 142.322L146.876 143.647L145.588 144.065L144.581 143.159Z" fill="#64BD87" fill-opacity="0.6"/>
<path d="M151.653 34.3057L150.557 33.5095L150.699 32.1624L151.936 31.6115L153.032 32.4076L152.89 33.7547L151.653 34.3057Z" fill="#18A0FC" fill-opacity="0.75"/>
<path d="M86.6942 99.2016L87.6341 101.65L85.1856 102.59L84.2457 100.141L86.6942 99.2016Z" fill="#F2CB6D" fill-opacity="0.35"/>
<path d="M140.625 63.8645L141.833 63.9067L141.791 65.1144L140.583 65.0722L140.625 63.8645Z" fill="#E82A2A" fill-opacity="0.85"/>
<path d="M60.6799 82.2396L59.828 82.7719L59.0585 82.1262L59.4348 81.1948L60.4369 81.2649L60.6799 82.2396Z" fill="#18A0FC" fill-opacity="0.45"/>
<path d="M10.4206 45.6393L10.9481 47.7547L9.09922 48.91L7.42915 47.5086L8.24584 45.4873L10.4206 45.6393Z" fill="#64BD87" fill-opacity="0.9"/>
<path d="M134.375 91.8645L134.183 90.8784L135.062 90.3914L135.797 91.0765L135.372 91.9869L134.375 91.8645Z" fill="#64BD87"/>
<path d="M116.56 25.7148L116.852 24.5422L118.025 24.8346L117.732 26.0072L116.56 25.7148Z" fill="#64BD87"/>
<path d="M51.8534 115.383L53.4908 116.253L53.5556 118.107L51.9828 119.089L50.3454 118.219L50.2807 116.365L51.8534 115.383Z" fill="#F2CB6D" fill-opacity="0.45"/>
<path d="M82.9404 59.2997L82.2947 60.0692L81.3633 59.6929L81.4334 58.6908L82.4081 58.4478L82.9404 59.2997Z" fill="#E82A2A" fill-opacity="0.35"/>
<path d="M55.1885 36.1059L56.7184 34.9531L57.8712 36.483L56.3413 37.6358L55.1885 36.1059Z" fill="#F2CB6D" fill-opacity="0.6"/>
<path d="M33.6808 73.6635L36.312 75.5059L33.4008 76.8634L33.6808 73.6635Z" fill="#E82A2A" fill-opacity="0.6"/>
<path d="M122.493 103.703L120.169 104.03L121.048 101.854L122.493 103.703Z" fill="#E82A2A" fill-opacity="0.9"/>
<path d="M85.6042 154.843L86.5964 154.686L87.0525 155.581L86.3422 156.291L85.4471 155.835L85.6042 154.843Z" fill="#E82A2A"/>
<path d="M0.262275 37.5833L-2.08061 37.4605L-0.802832 35.4929L0.262275 37.5833Z" fill="#18A0FC" fill-opacity="0.85"/>
<path d="M136.983 154.875L138.555 155.855L139.538 154.285L138.557 155.857L140.128 156.84L138.556 155.859L137.573 157.43L138.554 155.858L136.983 154.875Z" fill="#E82A2A" fill-opacity="0.35"/>
<path d="M127.427 55.43L126.444 53.8591L124.872 54.84L126.443 53.8569L125.462 52.2846L126.445 53.8555L128.017 52.8745L126.446 53.8577L127.427 55.43Z" fill="#18A0FC" fill-opacity="0.9"/>
<path d="M44.6359 84.2513L45.8313 84.886L46.0671 83.5533L45.8329 84.8863L47.1732 84.6987L45.8331 84.8878L46.4257 86.1046L45.8316 84.8885L44.8575 85.8281L45.8305 84.8874L44.6359 84.2513Z" fill="#18A0FC" fill-opacity="0.65"/>
<path d="M135.417 103.822L136.041 103.24L135.295 102.825L136.042 103.239L136.205 102.401L136.043 103.239L136.89 103.135L136.043 103.24L136.403 104.014L136.042 103.24L135.417 103.822Z" fill="#18A0FC" fill-opacity="0.9"/>
<path d="M55.6887 123.136L56.9982 121.825L55.3476 120.983L56.9992 121.823L57.2901 119.993L57.0013 121.823L58.8317 121.534L57.0017 121.825L57.8419 123.477L56.9997 121.826L55.6887 123.136Z" fill="#18A0FC" fill-opacity="0.75"/>
<path d="M6.10414 45.5991L6.95177 45.7026L7.05643 44.8551L6.95297 45.7027L7.80044 45.8074L6.95282 45.7039L6.84815 46.5514L6.95162 45.7038L6.10414 45.5991Z" fill="#E82A2A" fill-opacity="0.85"/>
<path d="M25.3277 54.7616L24.0147 55.0897L24.7312 56.2379L24.0133 55.0906L23.1427 56.1269L24.0121 55.0896L22.7575 54.5818L24.0127 55.0881L24.1079 53.738L24.0143 55.0882L25.3277 54.7616Z" fill="#18A0FC" fill-opacity="0.6"/>
<path d="M37.2426 107.57L36.1202 106.814L36.0251 108.164L36.1189 106.814L34.9022 107.407L36.1183 106.813L34.9967 106.055L36.119 106.812L36.2141 105.462L36.1204 106.812L37.337 106.219L36.121 106.813L37.2426 107.57Z" fill="#F2CB6D" fill-opacity="0.6"/>
<path d="M29.6529 10.3057L29.7937 8.95967L28.5571 9.50951L29.7931 8.95844L28.6987 8.16241L29.7939 8.95734L29.9361 7.61148L29.7953 8.95748L31.0319 8.40765L29.7958 8.95872L30.8903 9.75475L29.795 8.95982L29.6529 10.3057Z" fill="#18A0FC" fill-opacity="0.85"/>
<path d="M10.1635 114.189L10.4205 112.354L8.70214 113.047L10.4198 112.352L8.96024 111.211L10.4209 112.351L10.6797 110.516L10.4228 112.351L12.1411 111.658L10.4235 112.353L11.883 113.494L10.4223 112.354L10.1635 114.189Z" fill="#64BD87" fill-opacity="0.9"/>
<path d="M20.1487 125.522L20.0738 124.671L19.2877 125.004L20.0734 124.67L19.5136 124.026L20.0742 124.67L20.5144 123.938L20.075 124.67L20.9069 124.863L20.0748 124.671L20.1487 125.522Z" fill="#F2CB6D" fill-opacity="0.65"/>
<path d="M146.732 72.8874L146.293 73.6196L147.025 74.06L146.293 73.6207L145.852 74.3523L146.292 73.6201L145.56 73.1797L146.292 73.619L146.732 72.8874Z" fill="#64BD87" fill-opacity="0.45"/>
<path d="M96.1538 145.328L96.2722 144.483L95.4804 144.802L96.2719 144.482L95.5993 143.956L96.2724 144.481L96.3916 143.636L96.2732 144.481L97.065 144.162L96.2736 144.482L96.9461 145.008L96.273 144.483L96.1538 145.328Z" fill="#F2CB6D" fill-opacity="0.45"/>
<path d="M143.129 170.485L142.092 169.615L141.856 170.948L142.091 169.615L140.819 170.077L142.09 169.614L141.054 168.744L142.091 169.613L142.327 168.28L142.093 169.613L143.365 169.151L142.093 169.614L143.129 170.485Z" fill="#64BD87" fill-opacity="0.6"/>
<path d="M119.625 50.8645L120.208 51.4886L120.622 50.7421L120.209 51.4891L121.047 51.6525L120.208 51.4901L120.312 52.3376L120.207 51.4902L119.433 51.8506L120.207 51.4893L119.625 50.8645Z" fill="#E82A2A"/>
<path d="M66.963 89.9847L65.4259 88.9495L64.3885 90.4852L65.4237 88.9481L63.888 87.9107L65.4251 88.9459L66.4625 87.4102L65.4273 88.9473L66.963 89.9847Z" fill="#64BD87"/>
<path d="M124.52 117.656L126.31 117.175L125.831 115.385L126.312 117.174L128.103 116.696L126.313 117.177L126.791 118.967L126.31 117.178L124.52 117.656Z" fill="#E82A2A" fill-opacity="0.65"/>
<path d="M107.851 0.729479L108.568 -0.418585L107.215 -0.466493L108.568 -0.419938L107.933 -1.61519L108.569 -0.420574L109.287 -1.56792L108.57 -0.419856L109.923 -0.371948L108.57 -0.418503L109.205 0.776751L108.569 -0.417867L107.851 0.729479Z" fill="#18A0FC" fill-opacity="0.45"/>
<path d="M51.1746 83.6684L50.953 82.8438L50.128 83.0642L50.9527 82.8426L50.7323 82.0176L50.9539 82.8423L51.7788 82.6219L50.9542 82.8435L51.1746 83.6684Z" fill="#18A0FC" fill-opacity="0.45"/>
<path d="M72.197 51.7395L71.9045 50.9374L71.2314 51.4626L71.9039 50.9366L71.1963 50.4587L71.9045 50.9357L72.1403 50.1151L71.9054 50.936L72.7587 50.9067L71.9055 50.937L72.197 51.7395Z" fill="#18A0FC" fill-opacity="0.45"/>
<path d="M16.8513 6.37279L16.9262 7.22333L17.7123 6.89017L16.9266 7.22425L17.4864 7.86897L16.9258 7.22491L16.4856 7.95653L16.925 7.22439L16.0931 7.03183L16.9252 7.22341L16.8513 6.37279Z" fill="#E82A2A" fill-opacity="0.6"/>
<path d="M37.7193 95.8883L37.2777 94.6087L35.9976 95.0485L37.2771 94.6069L36.8373 93.3268L37.2789 94.6063L38.559 94.1665L37.2795 94.6081L37.7193 95.8883Z" fill="#E82A2A" fill-opacity="0.35"/>
<path d="M32.2194 36.0997L32.5662 35.3195L31.7171 35.2297L32.5663 35.3185L32.3893 34.4832L32.5673 35.3183L33.307 34.8918L32.5678 35.3191L33.202 35.8908L32.5671 35.3199L32.2194 36.0997Z" fill="#F2CB6D" fill-opacity="0.35"/>
<path d="M92.8127 121.183L93.0771 121.995L93.8895 121.732L93.0775 121.996L93.3408 122.809L93.0764 121.997L92.2641 122.26L93.076 121.996L92.8127 121.183Z" fill="#E82A2A" fill-opacity="0.45"/>
</g>
<rect x="116" y="134" width="5.20013" height="1.58" transform="rotate(-145 116 134)" fill="#18A0FC" fill-opacity="0.75"/>
<rect x="121" y="155" width="3.20013" height="3.58" transform="rotate(-83 121 155)" fill="#F2CB6D" fill-opacity="0.75"/>
<rect x="51" y="37" width="6.20013" height="3.58" transform="rotate(15 51 37)" fill="#64BD87"/>
<rect x="124" y="48" width="6.20013" height="2.58" transform="rotate(13 124 48)" fill="#18A0FC"/>
<rect x="66" y="129" width="1.20013" height="1.58" transform="rotate(-125 66 129)" fill="#64BD87" fill-opacity="0.35"/>
<rect x="118" y="148" width="1.20013" height="3.58" transform="rotate(139 118 148)" fill="#18A0FC" fill-opacity="0.6"/>
<rect x="25" y="8" width="1.20013" height="2.58" transform="rotate(-64 25 8)" fill="#64BD87" fill-opacity="0.35"/>
<rect x="129" y="92" width="1.20013" height="3.58" transform="rotate(91 129 92)" fill="#64BD87" fill-opacity="0.65"/>
<rect x="3" y="29" width="4.20013" height="1.58" transform="rotate(80 3 29)" fill="#64BD87" fill-opacity="0.35"/>
<rect x="29" y="54" width="7.20013" height="2.58" transform="rotate(-20 29 54)" fill="#F2CB6D" fill-opacity="0.35"/>
<rect x="77" y="98" width="2.20013" height="1.58" transform="rotate(-171 77 98)" fill="#18A0FC" fill-opacity="0.9"/>
<rect x="100" y="86" width="6.20013" height="2.58" transform="rotate(-7 100 86)" fill="#E82A2A" fill-opacity="0.6"/>
<circle cx="132.929" cy="33.9286" r="0.928617" fill="#18A0FC" fill-opacity="0.9"/>
<circle cx="22.9286" cy="73.9286" r="0.928617" fill="#F2CB6D" fill-opacity="0.9"/>
<circle cx="139.929" cy="42.9286" r="0.928617" fill="#18A0FC"/>
<circle cx="99.5" cy="119.5" r="0.5" fill="#64BD87"/>
<circle cx="101.929" cy="12.9286" r="0.928617" fill="#E82A2A" fill-opacity="0.65"/>
<circle cx="37.9286" cy="16.9286" r="0.928617" fill="#18A0FC" fill-opacity="0.85"/>
<circle cx="143.429" cy="154.429" r="1.42862" fill="#18A0FC" fill-opacity="0.35"/>
<circle cx="31.9286" cy="120.929" r="0.928617" fill="#F2CB6D" fill-opacity="0.85"/>
<circle cx="41.9286" cy="103.929" r="0.928617" fill="#64BD87" fill-opacity="0.35"/>
<circle cx="96.9286" cy="47.9286" r="0.928617" fill="#E82A2A" fill-opacity="0.9"/>
<circle cx="136.5" cy="129.5" r="0.5" fill="#18A0FC"/>
<path d="M1.19446 33.2932L0.0957356 32.7808L0.608081 31.6821L1.70681 32.1945L1.19446 33.2932Z" fill="#18A0FC" fill-opacity="0.75"/>
<path d="M114.651 152.217L115.086 151.085L116.218 151.52L115.783 152.651L114.651 152.217Z" fill="#18A0FC" fill-opacity="0.65"/>
<path d="M62.2446 101.303L63.1859 98.8513L65.6379 99.7925L64.6967 102.245L62.2446 101.303Z" fill="#F2CB6D" fill-opacity="0.9"/>
<path d="M82.0572 68.9763L80.4859 69.2534L79.7368 67.8446L80.8452 66.6969L82.2792 67.3963L82.0572 68.9763Z" fill="#E82A2A" fill-opacity="0.45"/>
<path d="M100.717 160.558L100.268 158.251L102.491 159.016L100.717 160.558Z" fill="#F2CB6D" fill-opacity="0.9"/>
<path d="M42.7737 25.1566L44.3907 23.0869L46.4604 24.7039L44.8434 26.7737L42.7737 25.1566Z" fill="#F2CB6D" fill-opacity="0.6"/>
<path d="M139.851 12.1045L140.535 12.6204L140.431 13.4712L139.642 13.8062L138.957 13.2903L139.062 12.4394L139.851 12.1045Z" fill="#E82A2A" fill-opacity="0.65"/>
<path d="M98.7246 34.5358L97.8324 33.213L98.8147 31.9558L100.314 32.5015L100.258 34.096L98.7246 34.5358Z" fill="#E82A2A"/>
<path d="M24.0653 63.4786L26.1296 62.7678L27.4436 64.5115L26.1913 66.3L24.1034 65.6616L24.0653 63.4786Z" fill="#64BD87" fill-opacity="0.75"/>
<path d="M99.7978 42.902L101.315 42.4089L102.253 43.6997L101.315 44.9905L99.7978 44.4975L99.7978 42.902Z" fill="#E82A2A" fill-opacity="0.35"/>
<path d="M98.015 19.1429L98.6214 18.3381L99.5743 18.6662L99.5567 19.6738L98.593 19.9684L98.015 19.1429Z" fill="#18A0FC" fill-opacity="0.6"/>
<path d="M16.3307 43.8142L14.478 43.6846L13.6639 42.0153L14.7024 40.4756L16.5551 40.6052L17.3693 42.2744L16.3307 43.8142Z" fill="#E82A2A"/>
<path d="M0.955136 170.856L0.0997955 170.812L0.488253 171.575L0.0990317 170.812L-0.367807 171.53L0.0983128 170.812L-0.756983 170.766L0.0983577 170.811L-0.2901 170.047L0.0991215 170.81L0.56596 170.092L0.0998404 170.811L0.955136 170.856Z" fill="#E82A2A" fill-opacity="0.75"/>
<path d="M45.5159 159.685L44.8321 160.201L45.3472 160.885L44.8312 160.201L44.1467 160.716L44.8304 160.2L44.3154 159.516L44.8314 160.2L45.5159 159.685Z" fill="#F2CB6D" fill-opacity="0.35"/>
<path d="M153.047 72.3564L151.692 72.4045L152.155 73.6792L151.691 72.4051L150.621 73.2394L151.69 72.4038L150.566 71.6448L151.69 72.4025L152.065 71.0991L151.692 72.4029L153.047 72.3564Z" fill="#F2CB6D" fill-opacity="0.6"/>
<path d="M86.3224 83.3053L86.0182 84.6269L87.3692 84.5095L86.0183 84.6285L86.5475 85.8771L86.0168 84.6291L84.9928 85.5182L86.0158 84.6279L84.8538 83.9287L86.0166 84.6265L86.3224 83.3053Z" fill="#E82A2A" fill-opacity="0.35"/>
<path d="M96.2666 102.358L94.9102 103.625L96.175 104.983L94.9083 103.627L93.55 104.892L94.9065 103.625L93.6417 102.267L94.9084 103.623L96.2666 102.358Z" fill="#F2CB6D" fill-opacity="0.65"/>
<path d="M66.3366 18.7643L66.5728 20.0997L67.612 19.2285L66.5736 20.1007L67.8477 20.5651L66.5732 20.102L66.808 21.4375L66.5718 20.1022L65.5326 20.9733L66.571 20.1012L65.2969 19.6367L66.5714 20.0999L66.3366 18.7643Z" fill="#64BD87" fill-opacity="0.65"/>
<path d="M67.2147 147.488L67.7253 145.704L65.9246 146.152L67.7248 145.702L66.4365 144.367L67.7262 145.701L68.2386 143.918L67.728 145.701L69.5287 145.253L67.7284 145.703L69.0168 147.039L67.7271 145.705L67.2147 147.488Z" fill="#E82A2A" fill-opacity="0.9"/>
<path d="M98.592 161.957L97.6372 163.548L99.2274 164.505L97.6359 163.55L96.6789 165.14L97.6336 163.549L96.0435 162.592L97.635 163.547L98.592 161.957Z" fill="#18A0FC" fill-opacity="0.75"/>
<path d="M136.832 47.2074L136.625 48.0385L137.448 47.8029L136.625 48.0394L137.241 48.6346L136.625 48.04L136.417 48.8709L136.624 48.0398L135.8 48.2754L136.624 48.0389L136.008 47.4437L136.624 48.0383L136.832 47.2074Z" fill="#F2CB6D" fill-opacity="0.85"/>
<path d="M117.791 167.616L117.174 166.408L115.965 167.023L117.173 166.406L116.558 165.198L117.175 166.406L118.384 165.791L117.176 166.407L117.791 167.616Z" fill="#F2CB6D" fill-opacity="0.65"/>
<path d="M91.5457 159.273L92.2719 158.819L91.5158 158.416L92.2723 158.818L92.2428 157.962L92.2731 158.818L92.9997 158.364L92.2736 158.819L93.0296 159.221L92.2732 158.819L92.3026 159.675L92.2723 158.82L91.5457 159.273Z" fill="#64BD87" fill-opacity="0.9"/>
</g>
<defs>
<linearGradient id="paint0_linear_2001_43122" x1="78.9801" y1="20.3831" x2="93.8996" y2="20.3831" gradientUnits="userSpaceOnUse">
<stop stop-color="#6178F2"/>
<stop offset="1" stop-color="#001BAA"/>
</linearGradient>
<linearGradient id="paint1_linear_2001_43122" x1="45.7981" y1="31.7942" x2="60.6879" y2="19.2992" gradientUnits="userSpaceOnUse">
<stop stop-color="#082ADB"/>
<stop offset="1" stop-color="#001587"/>
</linearGradient>
<linearGradient id="paint2_linear_2001_43122" x1="36.2107" y1="48.0087" x2="27.8084" y2="61.8124" gradientUnits="userSpaceOnUse">
<stop stop-color="#001BAA"/>
<stop offset="1" stop-color="#2F50FF"/>
</linearGradient>
<linearGradient id="paint3_linear_2001_43122" x1="32.2607" y1="97.4618" x2="46.8647" y2="107.064" gradientUnits="userSpaceOnUse">
<stop stop-color="#1B35C1"/>
<stop offset="1" stop-color="#6E83F4"/>
</linearGradient>
<linearGradient id="paint4_linear_2001_43122" x1="30.6013" y1="81.1031" x2="33.202" y2="97.5076" gradientUnits="userSpaceOnUse">
<stop stop-color="#3047C1"/>
<stop offset="1" stop-color="#0623BD"/>
</linearGradient>
<linearGradient id="paint5_linear_2001_43122" x1="61.2652" y1="120.677" x2="75.6691" y2="123.878" gradientUnits="userSpaceOnUse">
<stop stop-color="#4E62CE"/>
<stop offset="1" stop-color="#0C2296"/>
</linearGradient>
<linearGradient id="paint6_linear_2001_43122" x1="46.5472" y1="109.302" x2="59.7508" y2="120.105" gradientUnits="userSpaceOnUse">
<stop stop-color="#001BAA"/>
<stop offset="1" stop-color="#465EDF"/>
</linearGradient>
<linearGradient id="paint7_linear_2001_43122" x1="109.159" y1="109.335" x2="95.9892" y2="120.671" gradientUnits="userSpaceOnUse">
<stop stop-color="#1B2E93"/>
<stop offset="1" stop-color="#0D2FE3"/>
</linearGradient>
<linearGradient id="paint8_linear_2001_43122" x1="78.6252" y1="121.593" x2="95.4298" y2="120.659" gradientUnits="userSpaceOnUse">
<stop stop-color="#0D2084"/>
<stop offset="1" stop-color="#2242EE"/>
</linearGradient>
<linearGradient id="paint9_linear_2001_43122" x1="126.552" y1="80.8559" x2="123.174" y2="97.3049" gradientUnits="userSpaceOnUse">
<stop stop-color="#0C1E7E"/>
<stop offset="1" stop-color="#0729E0"/>
</linearGradient>
<linearGradient id="paint10_linear_2001_43122" x1="130.979" y1="83.7518" x2="114.733" y2="111.891" gradientUnits="userSpaceOnUse">
<stop stop-color="#001CAD"/>
<stop offset="1" stop-color="#1E3EE7"/>
</linearGradient>
<linearGradient id="paint11_linear_2001_43122" x1="119.608" y1="48.5152" x2="129.388" y2="63.0081" gradientUnits="userSpaceOnUse">
<stop stop-color="#3647A3"/>
<stop offset="1" stop-color="#5B70E2"/>
</linearGradient>
<linearGradient id="paint12_linear_2001_43122" x1="125.456" y1="80.0006" x2="129.28" y2="63.1071" gradientUnits="userSpaceOnUse">
<stop stop-color="#889BFF"/>
<stop offset="1" stop-color="#0C2EE1"/>
</linearGradient>
<linearGradient id="paint13_linear_2001_43122" x1="111.167" y1="32.2339" x2="96.0515" y2="24.943" gradientUnits="userSpaceOnUse">
<stop stop-color="#001BAA"/>
<stop offset="1" stop-color="#B0B3F8"/>
</linearGradient>
<linearGradient id="paint14_linear_2001_43122" x1="111.24" y1="31.3084" x2="118.442" y2="47.3128" gradientUnits="userSpaceOnUse">
<stop stop-color="#110DB4"/>
<stop offset="1" stop-color="#4154FF"/>
</linearGradient>
<radialGradient id="paint15_radial_2001_43122" cx="0" cy="0" r="1" gradientUnits="userSpaceOnUse" gradientTransform="translate(78.1015 72.09) scale(39.6775)">
<stop offset="0.8428" stop-color="#5570FF"/>
<stop offset="1" stop-color="#0125E4"/>
</radialGradient>
<linearGradient id="paint16_linear_2001_43122" x1="78.1839" y1="28.7661" x2="78.1839" y2="115.21" gradientUnits="userSpaceOnUse">
<stop offset="0.0226" stop-color="#FD9A18"/>
<stop offset="0.3764" stop-color="#FEC752"/>
<stop offset="1" stop-color="#FFA422"/>
</linearGradient>
<linearGradient id="paint17_linear_2001_43122" x1="78.1842" y1="23.1084" x2="78.1842" y2="120.58" gradientUnits="userSpaceOnUse">
<stop stop-color="#FF9114"/>
<stop offset="0.109375" stop-color="#FFDB69"/>
<stop offset="0.177083" stop-color="#FEE7B0"/>
<stop offset="0.421875" stop-color="#FEE9BA"/>
<stop offset="0.661458" stop-color="#FEE1A2"/>
<stop offset="0.911458" stop-color="#FFC853"/>
<stop offset="1" stop-color="#F57E16"/>
</linearGradient>
<clipPath id="clip0_2001_43122">
<rect width="158" height="171.447" fill="white"/>
</clipPath>
<clipPath id="clip1_2001_43122">
<rect width="157.5" height="170.904" fill="white" transform="translate(0 0.447266)"/>
</clipPath>
</defs>
</svg>
