<svg width="139" height="139" viewBox="0 0 139 139" fill="none" xmlns="http://www.w3.org/2000/svg">
<path d="M34.6748 57.7913V46.233C34.6748 27.1041 40.4539 11.5583 69.3496 11.5583C98.2452 11.5583 104.024 27.1041 104.024 46.233V57.7913" stroke="#C0C7CE" stroke-width="2.85862" stroke-linecap="round" stroke-linejoin="round"/>
<path d="M69.3495 106.914C77.3288 106.914 83.7973 100.445 83.7973 92.466C83.7973 84.4867 77.3288 78.0182 69.3495 78.0182C61.3702 78.0182 54.9017 84.4867 54.9017 92.466C54.9017 100.445 61.3702 106.914 69.3495 106.914Z" stroke="#C0C7CE" stroke-width="2.85862" stroke-linecap="round" stroke-linejoin="round"/>
<path d="M98.2452 127.141H40.4539C17.3374 127.141 11.5583 121.362 11.5583 98.2452V86.6869C11.5583 63.5704 17.3374 57.7913 40.4539 57.7913H98.2452C121.362 57.7913 127.141 63.5704 127.141 86.6869V98.2452C127.141 121.362 121.362 127.141 98.2452 127.141Z" stroke="#C0C7CE" stroke-width="2.85862" stroke-linecap="round" stroke-linejoin="round"/>
</svg>
